<svg id="Capa_1" enable-background="new 0 0 510 510" height="512" viewBox="0 0 510 510" width="512" xmlns="http://www.w3.org/2000/svg"><path d="m399.3 323.759c-1.45-13.71-3.13-29.63-4.9-46.31-89.518 14.622-190.838 14.371-278.8.01-1.8 16.99-3.47 32.79-4.89 46.27 93.43 12.52 195.31 12.53 288.59.03z"/><path d="m391.24 247.568c-.057-.528-11.755-111.081-11.84-111.93-2.471-23.37-25.407-38.984-48.11-32.6l-72.23 20.32c-2.65.75-5.47.75-8.12 0l-72.23-20.32c-22.713-6.387-45.64 9.241-48.11 32.6 0 .002-11.84 111.94-11.84 111.94 84.211 13.925 183.561 14.724 272.48-.01z"/><path d="m483.75 339.179c-138.428 31.363-315.185 32.083-457.46 0-13.442-3.064-26.29 7.211-26.29 21.06 0 9.95 6.71 18.56 16.33 20.97 144.978 36.245 332.336 36.261 477.34 0 9.62-2.41 16.33-11.02 16.33-20.95 0-13.843-12.819-24.112-26.25-21.08z"/></svg>