<svg id="Capa_1" enable-background="new 0 0 512.063 512.063" height="512" viewBox="0 0 512.063 512.063" width="512" xmlns="http://www.w3.org/2000/svg"><g><g><path d="m90.911 490.676c-3.054-2.484-5.979 8.729-8.766 5.938-9.775-9.788-17.79-21.328-23.542-34.116-6.474-14.381-10.071-30.345-10.071-47.14 0-17.34 3.835-33.779 10.714-48.516 26.111-56.028 39.176-117.074 37.684-178.882-.03-1.306-.049-2.613-.049-3.919 0-18.755 3.153-37.52 8.974-55.434 21.723-66.906 80.529-122.043 150.671-121.063 68.333.95 127.752 56.523 149.673 122.517 5.604 16.895 8.757 34.472 8.974 51.99.01.99.01 1.97.01 2.949-.376 62.907 11.751 125.348 37.952 182.514 3.331 7.284 5.94 14.974 7.699 22.981 1.769 8.007 2.698 16.33 2.698 24.862 0 18.25-4.25 35.501-11.82 50.832-7.333 14.895-17.81 14.104-30.559 24.486h-330.242z" fill="#8d9ca8"/><g fill="#7a8c98"><path d="m460.833 390.496c-1.759-8.007-4.368-15.697-7.699-22.981-26.201-57.166-38.327-119.608-37.952-182.514 0-.98 0-1.96-.01-2.949-.217-17.518-3.37-35.095-8.974-51.99-21.921-65.995-81.339-121.568-149.672-122.518-8.364-.117-16.564.573-24.562 1.977.61 0 1.219-.006 1.83.003 68.333.95 127.752 56.523 149.673 122.517 5.604 16.894 8.757 34.472 8.974 51.99.01.99.01 1.97.01 2.949-.376 62.907 11.751 125.348 37.952 182.514 3.331 7.284 5.94 14.974 7.699 22.981 1.769 8.007 2.698 16.33 2.698 24.862 0 18.25-4.25 35.501-11.82 50.832-6.831 13.876-16.391 14.142-27.974 22.506h20.147c12.749-10.382 23.226-9.59 30.559-24.486 7.571-15.331 11.82-32.582 11.82-50.832-.001-8.53-.93-16.854-2.699-24.861z"/><path d="m78.382 492.655c1.224 1.348 2.476 2.671 3.763 3.959 1.636 1.639 3.32-1.549 5.05-3.959z"/></g><path d="m451.721 466.952v43.518h-393.356v-43.617c0-1.465.079-2.92.237-4.355 1.67-16.459 12.838-30.622 28.77-35.937l90.986-30.374 18.057-6.027c9.34-3.118 15.635-11.867 15.635-21.714v-51.96h85.985v52.416c0 9.877 6.325 18.646 15.695 21.744l15.388 5.087 10.931 3.612 19.183 6.334 19.48 6.433 19.668 6.502 24.214 8.007c17.147 5.661 28.8 21.556 29.116 39.569.011.257.011.505.011.762z" fill="#fe99a0"/><path d="m329.118 395.732c-17.325 22.813-44.722 37.54-75.558 37.54-30.628 0-57.857-14.529-75.202-37.085l18.057-6.027c9.34-3.118 15.635-11.867 15.635-21.714v-51.96h85.985v52.416c0 9.877 6.325 18.646 15.695 21.744z" fill="#ffcebf"/><g fill="#ffb09e"><path d="m367.713 234.338c-8.188 0-14.825-6.637-14.825-14.825v-22.805c0-8.188 6.637-14.825 14.825-14.825 8.188 0 14.825 6.637 14.825 14.825v22.805c0 8.188-6.638 14.825-14.825 14.825z"/><path d="m142.373 234.338c-8.188 0-14.825-6.637-14.825-14.825v-22.805c0-8.188 6.637-14.825 14.825-14.825 8.188 0 14.825 6.637 14.825 14.825v22.805c0 8.188-6.637 14.825-14.825 14.825z"/><path d="m255.043 325.056c-15.428 0-30.016-3.573-42.992-9.947v43.538c4.675.693 9.458 1.049 14.331 1.049 27.021 0 51.482-10.966 69.183-28.702.84-.841 1.66-1.692 2.471-2.563v-13.322c-12.977 6.374-27.565 9.947-42.993 9.947z"/></g><path d="m352.394 142.294c-41.675 0-77.765-19.479-95.342-53.76-1.456-2.84-5.53-2.834-6.986.007-17.23 33.594-52.245 52.959-92.867 53.715v89.771c0 54.114 43.806 97.982 97.845 97.982 54.038 0 97.845-43.868 97.845-97.982v-89.739c-.166.001-.33.006-.495.006z" fill="#ffcebf"/><path d="m352.394 142.294c-41.674 0-77.764-19.479-95.341-53.759-1.457-2.841-5.531-2.834-6.987.007-17.23 33.594-52.245 52.957-92.867 53.714v14.846c32.004-.596 60.528-12.742 79.616-34.297 8.893-10.042 24.51-10.179 33.383-.12 19.673 22.301 49.42 34.576 82.685 34.454.002-.002.003-.003.005-.005v-14.846c-.165.001-.329.006-.494.006z" fill="#ffb09e"/><path d="m378.713 412.112-51.838 98.358h-57.857l71.031-111.126 19.184 6.335z" fill="#fd8087"/><path d="" style="fill:none;stroke:#000;stroke-width:15;stroke-linecap:round;stroke-linejoin:round;stroke-miterlimit:10"/><path d="" style="fill:none;stroke:#000;stroke-width:15;stroke-linecap:round;stroke-linejoin:round;stroke-miterlimit:10"/><path d="m451.721 466.952v43.518h-155.919l63.431-104.791 39.148 12.935 24.214 8.007c17.147 5.661 28.8 21.556 29.116 39.569.01.257.01.505.01.762z" fill="#fee97d"/><path d="m451.711 466.19c-.316-18.013-11.969-33.908-29.116-39.569l-24.214-8.007-39.148-12.935-8.352 13.016 29.71 9.817 24.214 8.007c17.147 5.661 28.8 21.556 29.116 39.569.01.257.01.505.01.762v27.682h17.79v-37.58c0-.257 0-.505-.01-.762z" fill="#fedf30"/><path d="m451.721 466.952v43.518h-108.479l55.139-91.856 24.214 8.007c17.147 5.661 28.8 21.556 29.116 39.569.01.257.01.505.01.762z" fill="#ade194"/><path d="m451.711 466.19c-.316-18.013-11.969-33.908-29.116-39.569l-24.214-8.007-8.354 13.017 14.778 4.887c17.147 5.661 28.8 21.556 29.116 39.569.01.257.01.505.01.762v33.621h17.79v-43.518c0-.257 0-.505-.01-.762z" fill="#97da7b"/></g><g><path d="m471.026 415.387c0-8.938-.968-17.848-2.873-26.471-1.838-8.365-4.598-16.605-8.206-24.497-25.551-55.58-38.004-117.365-37.281-182.432-2.21-126.268-139.009-235.436-253.256-153.752-3.379 2.395-4.174 7.077-1.776 10.455 2.396 3.379 7.077 4.176 10.456 1.776 103.926-74.712 227.79 27.865 229.576 141.688-.714 67.178 12.205 130.979 38.642 188.509 3.164 6.919 5.585 14.144 7.196 21.48 3.628 16.311 3.329 33.992-.849 50.098-5.988-10.506-15.72-18.753-27.711-22.712l-108.864-35.976c-6.311-2.086-10.55-7.963-10.55-14.623v-44.252c8.636-4.735 16.656-10.715 23.824-17.86 6.788-7.251-3.314-17.389-10.59-10.625-7.095 7.071-15.167 12.799-23.897 17.101-.167.078-.334.159-.495.249-58.67 29.32-130.489-15.706-129.678-81.486-.001.001-.001-82.605-.001-82.605 38.462-2.784 70.908-21.668 88.86-51.721 18.459 30.945 52.022 49.927 91.829 51.92v82.407c0 15.066-3.77 29.98-10.902 43.127-1.975 3.641-.624 8.193 3.017 10.169 3.641 1.974 8.192.625 10.169-3.017 6.981-12.869 11.188-27.183 12.365-41.829 14.117 5.459 30.299-5.75 30.001-20.965v-22.804c.284-15.06-15.575-26.265-29.649-21.085v-33.335c0-4.143-3.357-7.5-7.5-7.5-39.666.199-73.177-18.438-89.161-49.675-4.077-8.215-16.253-8.22-20.335.005-15.573 30.365-47.848 48.922-86.333 49.638-4.087.076-7.36 3.411-7.36 7.499v33.367c-14.078-5.173-29.933 6.02-29.65 21.085v22.804c-.299 15.204 15.876 26.424 29.989 20.97 2.888 36.279 24.186 67.443 54.514 84.097v43.865c0 6.635-4.224 12.502-10.511 14.6l-109.04 36.402c-10.999 3.669-20.141 10.979-26.183 20.359-1.847-7.947-2.786-16.117-2.786-24.449 0-15.857 3.368-31.113 10.012-45.348 27.208-58.278 40.29-122.569 38.338-185.97-.144-45.702 20.19-93.086 52.252-125.31 2.911-2.947 2.883-7.695-.064-10.607s-7.696-2.883-10.606.063c-34.813 34.992-56.745 86.252-56.582 135.854 1.933 61.236-10.639 123.331-36.932 179.63-14.685 31.026-15.206 68.649-1.473 100.094-.283-.664-.024 39.948-.111 40.768 0 4.143 3.358 7.5 7.5 7.5s7.5-3.357 7.5-7.5c.058-1.075-.175-41.733.199-41.276 1.383-13.631 10.679-25.241 23.684-29.579l86.066-28.732c39.151 47.664 117.043 47.441 155.893-.459l15.99 5.284-58.207 90.712c-3.246 4.833.532 11.675 6.306 11.552 2.469 0 4.887-1.219 6.319-3.45l60.287-93.954 24.442 8.077-49.914 77.775c-3.248 4.833.531 11.674 6.305 11.552 2.469 0 4.887-1.218 6.318-3.45l51.995-81.017 18.695 6.178c14.131 4.661 23.78 17.848 23.973 32.743-.021.684.026 37.402.005 38.046 0 4.142 3.357 7.5 7.5 7.5s7.5-3.357 7.5-7.5v-36.669c7.829-16.46 11.809-34.112 11.809-52.506zm-103.319-225.975c4.039 0 7.324 3.286 7.324 7.325v22.805c-.341 9.689-14.305 9.698-14.649 0v-22.805c0-4.039 3.286-7.325 7.325-7.325zm-225.339 37.455c-4.039 0-7.325-3.286-7.325-7.325v-22.805c.341-9.689 14.306-9.698 14.65 0v22.805c0 4.039-3.286 7.325-7.325 7.325zm111.187 198.934c-23.701 0-45.833-9.373-62.18-26.025l7.408-2.473c12.418-4.145 20.762-15.729 20.762-28.828v-37.103c22.066 8.147 48.754 8.197 70.984.056v37.502c0 13.145 8.375 24.744 20.841 28.865l4.771 1.577c-16.379 16.909-38.66 26.429-62.586 26.429z"/><path d="m223.094 196.621c6.621 7.391 17.616-1.783 11.506-9.623-1.57-1.879-10.084-11.224-23.881-10.599-11.961.54-19.281 8.259-21.24 10.612-6.081 7.837 4.9 17.012 11.529 9.596 6.35-7.393 16.563-6.448 22.086.014z"/><path d="m309.079 196.621c6.622 7.391 17.616-1.783 11.506-9.623-1.57-1.879-10.121-11.243-23.881-10.599-11.952.539-19.277 8.257-21.237 10.608-6.086 7.836 4.889 17.014 11.524 9.603 6.353-7.395 16.559-6.452 22.088.011z"/><path d="m253.555 283.435c20.275 0 32.328-13.909 34.538-16.697 2.573-3.246 2.028-7.964-1.218-10.536s-7.964-2.028-10.536 1.218c-11.978 14.616-33.687 14.516-45.57-.002-2.575-3.244-7.29-3.788-10.537-1.214-3.245 2.574-3.789 7.292-1.215 10.537 2.212 2.787 14.272 16.694 34.538 16.694z"/><path d="m260.967 159.149c0-4.1-3.319-7.423-7.412-7.423-9.812.339-9.81 14.508 0 14.846 4.094-.001 7.412-3.324 7.412-7.423z"/></g></g></svg>