<svg id="Capa_1" enable-background="new 0 0 502.355 502.355" height="512" viewBox="0 0 502.355 502.355" width="512" xmlns="http://www.w3.org/2000/svg"><g><g id="XMLID_196_"><g><g><path d="m45.627 261.117c-4.142 0-7.5-3.358-7.5-7.5v-25.363c0-4.142 3.358-7.5 7.5-7.5s7.5 3.358 7.5 7.5v25.363c0 4.142-3.358 7.5-7.5 7.5z" fill="#fee97d"/></g></g></g><path d="m63.377 248.053h-19.9c-3.02 0-5.47 2.45-5.47 5.47v44.19l9.707 12.676h17.076l4.057-12.676v-44.19c0-3.02-2.45-5.47-5.47-5.47z" fill="#fee97d"/><path d="m149.705 279.426h-40.033l-15.2 18.291v186.243h77.083v-186.243z" fill="#fdd79b"/><g><path d="m130.472 479.294c-4.142 0-7.5-3.358-7.5-7.5v-19.906c0-4.142 3.358-7.5 7.5-7.5s7.5 3.358 7.5 7.5v19.906c0 4.143-3.358 7.5-7.5 7.5z" fill="#fccd7f"/></g><path d="m393.307 277.227h-39.54l-18.885 20.49v185.076h72.001v-185.076z" fill="#fdd79b"/><g><path d="m370.882 479.294c-4.143 0-7.5-3.358-7.5-7.5v-19.906c0-4.142 3.357-7.5 7.5-7.5s7.5 3.358 7.5 7.5v19.906c0 4.143-3.357 7.5-7.5 7.5z" fill="#fccd7f"/></g><g><path d="m455.847 261.096c-4.143 0-7.5-3.358-7.5-7.5v-25.363c0-4.142 3.357-7.5 7.5-7.5s7.5 3.358 7.5 7.5v25.363c0 4.142-3.357 7.5-7.5 7.5z" fill="#fee97d"/></g><path d="m457.877 248.053h-19.9c-3.02 0-5.47 2.45-5.47 5.47v44.19l5.709 14.26h21.852l3.278-14.26v-44.19c.001-3.02-2.449-5.47-5.469-5.47z" fill="#fee97d"/><g id="XMLID_197_"><g><path d="m406.887 297.713h56.46v187.08h-56.46z" fill="#fae2c0"/></g></g><path d="m406.887 297.713h14.995v187.08h-14.995z" fill="#fddeb0"/><g><path d="m435.507 479.294c-4.143 0-7.5-3.358-7.5-7.5v-19.906c0-4.142 3.357-7.5 7.5-7.5s7.5 3.358 7.5 7.5v19.906c0 4.143-3.357 7.5-7.5 7.5z" fill="#fece85"/></g><path d="m38.007 297.713h56.46v190.08h-56.46z" fill="#fae2c0"/><path d="m79.472 297.713h14.995v190.08h-14.995z" fill="#fddeb0"/><g><path d="m65.847 479.294c-4.142 0-7.5-3.358-7.5-7.5v-19.906c0-4.142 3.358-7.5 7.5-7.5s7.5 3.358 7.5 7.5v19.906c0 4.143-3.358 7.5-7.5 7.5z" fill="#fece85"/></g><g><path d="m130.472 413.059c-4.142 0-7.5-3.358-7.5-7.5v-19.906c0-4.142 3.358-7.5 7.5-7.5s7.5 3.358 7.5 7.5v19.906c0 4.142-3.358 7.5-7.5 7.5z" fill="#fccd7f"/></g><g fill="#fccd7f"><path d="m94.472 413.059h72c1.964 0 3.746-.761 5.083-1.996v-11.007c-1.337-1.235-3.119-1.996-5.083-1.996h-72z"/><path d="m94.472 335.137h72c1.964 0 3.746-.761 5.083-1.996v-11.007c-1.337-1.235-3.119-1.996-5.083-1.996h-72z"/><path d="m146.478 483.96h25.077v-186.243l-21.85-18.291h-3.227z"/></g><path d="m146.478 398.059v15h19.995c1.964 0 3.746-.761 5.083-1.996v-11.007c-1.337-1.235-3.119-1.996-5.083-1.996h-19.995z" fill="#fbc56d"/><path d="m146.478 320.137v15h19.995c1.964 0 3.746-.761 5.083-1.996v-11.007c-1.337-1.235-3.119-1.996-5.083-1.996h-19.995z" fill="#fbc56d"/><path d="m355.878 277.227h-2.111l-18.885 20.49v185.076h20.996z" fill="#fccd7f"/><path d="m334.882 320.137v15h72.001v-15z" fill="#fccd7f"/><path d="m355.878 335.137v-15h-20.996v15z" fill="#fbc56d"/><g><path d="m370.882 413.059c-4.143 0-7.5-3.358-7.5-7.5v-19.906c0-4.142 3.357-7.5 7.5-7.5s7.5 3.358 7.5 7.5v19.906c0 4.142-3.357 7.5-7.5 7.5z" fill="#fccd7f"/></g><path d="m334.882 398.059v15h72.001v-15z" fill="#fccd7f"/><path d="m355.878 413.059v-15h-20.996v15z" fill="#fbc56d"/><path d="m327.32 249.878h-137.11l-23.733 15.585v224.33h169.401v-224.33z" fill="#fae2c0"/><path d="m214.933 489.637.199-239.759h-24.922l-23.733 15.585v224.33h169.401v-.156z" fill="#fddeb0"/><g id="XMLID_195_"><g fill="#fec165"><path d="m299.217 297.713h-48.54l-3.887 17.546 56.367 75.634v-89.24c0-2.17-1.76-3.94-3.94-3.94z"/><path d="m259.844 326.604-9.167-28.89h-48.54c-2.18 0-3.94 1.77-3.94 3.94l.033 86.597z"/></g></g><path d="m215.031 371.44.061-73.727h-12.955c-2.18 0-3.94 1.77-3.94 3.94l.032 86.597z" fill="#fdb441"/><path d="m303.157 390.893v97.9h-104.96v-97.9c0-32.93 15.16-64.02 41.11-84.29l11.37-8.89 11.37 8.89c25.95 20.27 41.11 51.36 41.11 84.29z" fill="#fdd79b"/><path d="m264.777 308.815c-.897-.75-1.804-1.489-2.729-2.212l-11.37-8.89-11.37 8.89c-25.95 20.27-41.11 51.36-41.11 84.29v97.9h28.199v-97.9c-.001-31.756 14.102-61.798 38.38-82.078z" fill="#fece85"/><path d="m270.246 483.794h-39.138v-39.271c0-10.808 8.761-19.569 19.569-19.569 10.808 0 19.569 8.761 19.569 19.569z" fill="#fbc56d"/><path d="m488.778 471.794h-475.201c-5.584 0-10.11 4.526-10.11 10.11v13.536c0 3.818 3.095 6.914 6.914 6.914h481.594c3.818 0 6.914-3.095 6.914-6.914v-13.536c-.001-5.583-4.527-10.11-10.111-10.11z" fill="#fec165"/><g><path d="m250.927 97.609c-4.142 0-7.5-3.358-7.5-7.5v-82.609c0-4.142 3.358-7.5 7.5-7.5 4.143 0 7.5 3.358 7.5 7.5v82.609c0 4.142-3.357 7.5-7.5 7.5z" fill="#fef0ae"/></g><g><path d="m255.759 34.85h-10.455c-4.142 0-7.5-3.358-7.5-7.5s3.358-7.5 7.5-7.5h10.455c4.143 0 7.5 3.358 7.5 7.5s-3.357 7.5-7.5 7.5z" fill="#fef0ae"/></g><g id="XMLID_175_"><g><path d="m323.172 207.053h-124.615l-31.867 27.24v31.17h169.188v-31.17z" fill="#fdd79b"/></g></g><g><path d="m260.276 392.789h-19.197c-3.996 0-7.236-3.24-7.236-7.236v-19.197c0-3.996 3.239-7.236 7.236-7.236h19.197c3.996 0 7.236 3.24 7.236 7.236v19.197c0 3.996-3.24 7.236-7.236 7.236z" fill="#fbc56d"/><g id="XMLID_174_"><g><path d="m255.537 62.163c-2.57-1.96-6.15-1.96-8.72 0l-52.46 40.03 16.018 21.385h88.835l8.787-21.385z" fill="#fef0ae"/><path d="m215.146 234.137 31.684-27.084h-48.273l-31.867 27.24v31.17h48.43z" fill="#fece85"/><path d="m346.79 178.031h-171.416l-28.806 29.022c4.22 10.14 10.85 19.51 19.91 27.24h169.4c9.06-7.73 15.69-17.1 19.91-27.24z" fill="#fec165"/><path d="m195.389 207.053c-3.864-9.259-5.719-19.156-5.595-29.022h-14.42l-28.806 29.022c4.22 10.14 10.85 19.51 19.91 27.24h48.821c-9.061-7.73-15.69-17.1-19.91-27.24z" fill="#fdb441"/><g fill="#fee97d"><path d="m215.341 123.579c.997-.847 2.012-1.681 3.067-2.485l24.77-18.9 32.41-24.73-20.051-15.3c-2.57-1.96-6.15-1.96-8.72 0l-52.46 40.03 16.018 21.385z"/><path d="m332.767 121.093c27.4 20.9 35.26 56.63 23.02 85.96h-209.22c-12.24-29.33-4.38-65.06 23.02-85.96l24.77-18.9h113.64z"/></g></g></g><path d="m218.408 121.093 24.77-18.9h-48.821l-24.77 18.9c-27.4 20.9-35.26 56.63-23.02 85.96h48.821c-12.239-29.33-4.38-65.06 23.02-85.96z" fill="#fee45a"/><path d="m166.473 297.717h-72.001v-11.007c0-16.403 7.489-31.909 20.338-42.106l11.87-9.421c2.221-1.763 5.363-1.763 7.584 0l11.87 9.421c12.848 10.197 20.338 25.703 20.338 42.106v11.007z" fill="#fee97d"/><path d="m146.135 244.603-11.87-9.421c-2.221-1.763-5.363-1.763-7.584 0l-6.11 4.849 5.761 4.572c12.848 10.197 20.338 25.703 20.338 42.106v11.007h19.804v-11.006c-.001-16.403-7.491-31.909-20.339-42.107z" fill="#fee45a"/><g><path d="m65.847 413.059c-4.142 0-7.5-3.358-7.5-7.5v-19.906c0-4.142 3.358-7.5 7.5-7.5s7.5 3.358 7.5 7.5v19.906c0 4.142-3.358 7.5-7.5 7.5z" fill="#fece85"/></g><path d="m38.007 398.059h56.46v15h-56.46z" fill="#fdd79b"/><path d="m79.472 398.059h14.995v15h-14.995z" fill="#fece85"/><path d="m38.007 320.137h56.46v15h-56.46z" fill="#fdd79b"/><path d="m79.472 320.137h14.995v15h-14.995z" fill="#fece85"/><path d="m334.882 297.717h72v-11.007c0-16.403-7.489-31.909-20.338-42.106l-11.87-9.421c-2.221-1.763-5.363-1.763-7.584 0l-11.87 9.421c-12.848 10.197-20.338 25.703-20.338 42.106z" fill="#fee97d"/><path d="m376.125 244.603 5.21-4.135-6.66-5.286c-2.221-1.763-5.364-1.763-7.584 0l-11.87 9.421c-12.848 10.197-20.338 25.703-20.338 42.106v11.007h20.905v-11.006c-.001-16.403 7.489-31.909 20.337-42.107z" fill="#fee45a"/><g><path d="m435.507 413.059c-4.143 0-7.5-3.358-7.5-7.5v-19.906c0-4.142 3.357-7.5 7.5-7.5s7.5 3.358 7.5 7.5v19.906c0 4.142-3.357 7.5-7.5 7.5z" fill="#fece85"/></g><path d="m406.887 398.059h56.46v15h-56.46z" fill="#fdd79b"/><path d="m406.887 398.059h14.995v15h-14.995z" fill="#fece85"/><path d="m406.887 320.137h56.46v15h-56.46z" fill="#fdd79b"/><path d="m406.887 320.137h14.995v15h-14.995z" fill="#fece85"/></g></g></svg>