<svg id="Capa_1" enable-background="new 0 0 510.855 510.855" height="512" viewBox="0 0 510.855 510.855" width="512" xmlns="http://www.w3.org/2000/svg"><g><g><path d="m67.627 249.053h-19.9c-3.02 0-5.47 2.45-5.47 5.47v44.19l9.707 12.676h17.076l4.057-12.676v-44.19c0-3.02-2.45-5.47-5.47-5.47z" fill="#fee97d"/><path d="m153.955 280.426h-40.033l-15.2 18.291v186.243h77.083v-186.243z" fill="#fdd79b"/><path d="m397.557 278.227h-39.539l-18.886 20.49v185.076h72.001v-185.076z" fill="#fdd79b"/><path d="m462.127 249.053h-19.9c-3.02 0-5.47 2.45-5.47 5.47v44.19l5.709 14.26h21.852l3.278-14.26v-44.19c.001-3.02-2.449-5.47-5.469-5.47z" fill="#fee97d"/><g id="XMLID_197_"><g><path d="m411.137 298.713h56.46v187.08h-56.46z" fill="#fae2c0"/></g></g><path d="m411.137 298.713h14.995v187.08h-14.995z" fill="#fddeb0"/><path d="m42.257 298.713h56.46v190.08h-56.46z" fill="#fae2c0"/><path d="m83.722 298.713h14.995v190.08h-14.995z" fill="#fddeb0"/><g fill="#fccd7f"><path d="m98.722 414.059h72c1.964 0 3.746-.761 5.083-1.996v-11.007c-1.337-1.235-3.119-1.996-5.083-1.996h-72z"/><path d="m98.722 336.137h72c1.964 0 3.746-.761 5.083-1.996v-11.007c-1.337-1.235-3.119-1.996-5.083-1.996h-72z"/><path d="m150.728 484.96h25.077v-186.243l-21.85-18.291h-3.227z"/></g><path d="m150.728 399.059v15h19.995c1.964 0 3.746-.761 5.083-1.996v-11.007c-1.337-1.235-3.119-1.996-5.083-1.996h-19.995z" fill="#fbc56d"/><path d="m150.728 321.137v15h19.995c1.964 0 3.746-.761 5.083-1.996v-11.007c-1.337-1.235-3.119-1.996-5.083-1.996h-19.995z" fill="#fbc56d"/><path d="m360.128 278.227h-2.11l-18.886 20.49v185.076h20.996z" fill="#fccd7f"/><path d="m339.132 321.137v15h.001 72v-15h-72z" fill="#fccd7f"/><path d="m360.128 336.137v-15h-20.995-.001v15h.001z" fill="#fbc56d"/><path d="m339.132 399.059v15h.001 72v-15h-72z" fill="#fccd7f"/><path d="m360.128 414.059v-15h-20.995-.001v15h.001z" fill="#fbc56d"/><path d="m331.57 250.878h-137.11l-23.732 15.585v224.33h169.4v-224.33z" fill="#fae2c0"/><path d="m219.183 490.637.2-239.759h-24.923l-23.732 15.585v224.33h169.4v-.156z" fill="#fddeb0"/><g id="XMLID_195_"><g fill="#fec165"><path d="m303.468 298.713h-48.54l-3.887 17.546 56.367 75.634v-89.24c-.001-2.17-1.761-3.94-3.94-3.94z"/><path d="m264.094 327.604-9.167-28.89h-48.54c-2.18 0-3.94 1.77-3.94 3.94l.033 86.597z"/></g></g><path d="m219.281 372.44.061-73.727h-12.955c-2.18 0-3.94 1.77-3.94 3.94l.032 86.597z" fill="#fdb441"/><path d="m307.408 391.893v97.9h-104.96v-97.9c0-32.93 15.16-64.02 41.11-84.29l11.37-8.89 11.37 8.89c25.949 20.27 41.11 51.36 41.11 84.29z" fill="#fdd79b"/><path d="m269.027 309.815c-.897-.75-1.804-1.489-2.729-2.212l-11.37-8.89-11.37 8.89c-25.95 20.27-41.11 51.36-41.11 84.29v97.9h28.199v-97.9c-.001-31.756 14.102-61.798 38.38-82.078z" fill="#fece85"/><path d="m274.496 484.794h-39.138v-39.271c0-10.808 8.761-19.569 19.569-19.569 10.808 0 19.569 8.761 19.569 19.569z" fill="#fbc56d"/><path d="m493.028 472.794h-475.201c-5.584 0-10.11 4.526-10.11 10.11v13.536c0 3.818 3.095 6.914 6.914 6.914h481.594c3.818 0 6.914-3.095 6.914-6.914v-13.536c-.001-5.583-4.527-10.11-10.111-10.11z" fill="#fec165"/><g id="XMLID_175_"><g><path d="m327.423 208.053h-124.616l-31.867 27.24v31.17h169.188v-31.17z" fill="#fdd79b"/></g></g><g><path d="m264.526 393.789h-19.197c-3.996 0-7.236-3.24-7.236-7.236v-19.197c0-3.996 3.239-7.236 7.236-7.236h19.197c3.996 0 7.236 3.24 7.236 7.236v19.197c0 3.996-3.24 7.236-7.236 7.236z" fill="#fbc56d"/><g id="XMLID_174_"><g><path d="m259.787 63.163c-2.57-1.96-6.15-1.96-8.72 0l-52.46 40.03 16.018 21.385h88.835l8.787-21.385z" fill="#fef0ae"/><path d="m219.396 235.137 31.684-27.084h-48.273l-31.867 27.24v31.17h48.43z" fill="#fece85"/><path d="m351.04 179.031h-171.416l-28.806 29.022c4.22 10.14 10.85 19.51 19.91 27.24h169.4c9.06-7.73 15.69-17.1 19.91-27.24z" fill="#fec165"/><path d="m199.639 208.053c-3.864-9.259-5.719-19.156-5.595-29.022h-14.42l-28.806 29.022c4.22 10.14 10.85 19.51 19.91 27.24h48.821c-9.06-7.73-15.69-17.1-19.91-27.24z" fill="#fdb441"/><g fill="#fee97d"><path d="m219.592 124.579c.997-.847 2.012-1.681 3.067-2.485l24.77-18.9 32.41-24.73-20.051-15.3c-2.57-1.96-6.15-1.96-8.72 0l-52.46 40.03 16.018 21.385z"/><path d="m337.017 122.093c27.4 20.9 35.26 56.63 23.02 85.96h-209.22c-12.24-29.33-4.38-65.06 23.02-85.96l24.77-18.9h113.64z"/></g></g></g><path d="m222.659 122.093 24.77-18.9h-48.821l-24.77 18.9c-27.4 20.9-35.26 56.63-23.02 85.96h48.821c-12.24-29.33-4.38-65.06 23.02-85.96z" fill="#fee45a"/><path d="m170.723 298.717h-72v-11.007c0-16.403 7.489-31.909 20.338-42.106l11.87-9.421c2.221-1.763 5.363-1.763 7.584 0l11.87 9.421c12.848 10.197 20.338 25.703 20.338 42.106z" fill="#fee97d"/><path d="m150.385 245.603-11.87-9.421c-2.221-1.763-5.363-1.763-7.584 0l-6.11 4.849 5.761 4.572c12.848 10.197 20.338 25.703 20.338 42.106v11.007h19.804v-11.006c-.001-16.403-7.491-31.909-20.339-42.107z" fill="#fee45a"/><path d="m42.258 399.059h56.46v15h-56.46z" fill="#fdd79b"/><path d="m83.722 399.059h14.995v15h-14.995z" fill="#fece85"/><path d="m42.258 321.137h56.46v15h-56.46z" fill="#fdd79b"/><path d="m83.722 321.137h14.995v15h-14.995z" fill="#fece85"/><path d="m339.132 298.717h72.001v-11.007c0-16.403-7.489-31.909-20.338-42.106l-11.87-9.421c-2.221-1.763-5.363-1.763-7.584 0l-11.87 9.421c-12.848 10.197-20.338 25.703-20.338 42.106v11.007z" fill="#fee97d"/><path d="m380.375 245.603 5.21-4.135-6.66-5.286c-2.221-1.763-5.364-1.763-7.584 0l-11.87 9.421c-12.848 10.197-20.338 25.703-20.338 42.106v11.007h20.905v-11.006c-.001-16.403 7.489-31.909 20.337-42.107z" fill="#fee45a"/><path d="m411.137 399.059h56.46v15h-56.46z" fill="#fdd79b"/><path d="m411.137 399.059h14.995v15h-14.995z" fill="#fece85"/><path d="m411.137 321.137h56.46v15h-56.46z" fill="#fdd79b"/><path d="m411.137 321.137h14.995v15h-14.995z" fill="#fece85"/></g></g><g><path d="m264.526 352.62h-19.197c-8.125 0-14.735 6.61-14.735 14.736v19.197c0 8.125 6.61 14.735 14.735 14.735h19.197c8.125 0 14.735-6.61 14.735-14.735v-19.197c0-8.126-6.61-14.736-14.735-14.736zm-.265 33.669h-18.668v-18.669h18.668z"/><path d="m186.817 121.623 14.325-10.931h108.57l22.75 17.359.167.137c.163.135.326.27.495.401 1.371 1.073 3 1.593 4.616 1.593 2.228 0 4.433-.988 5.912-2.879 2.552-3.263 1.977-7.976-1.286-10.529l-.167-.137c-.211-.175-.423-.348-.638-.512l-77.224-58.925c-.532-.406-1.09-.76-1.661-1.084v-20.459c3.338-.759 5.832-3.739 5.832-7.307s-2.494-6.548-5.832-7.307v-13.543c0-4.142-3.357-7.5-7.5-7.5-4.142 0-7.5 3.358-7.5 7.5v13.596c-3.232.834-5.623 3.761-5.623 7.254s2.391 6.419 5.623 7.254v20.805c-.396.246-.785.507-1.162.794l-68.798 52.497c-3.293 2.513-3.925 7.219-1.413 10.512 2.515 3.291 7.221 3.924 10.514 1.411zm68.61-52.353 34.627 26.422h-69.254z"/><path d="m493.028 465.294h-17.928v-236.134c0-4.142-3.357-7.5-7.5-7.5s-7.5 3.358-7.5 7.5v12.394h-17.873c-7.151 0-12.97 5.818-12.97 12.969v36.695h-10.625v-3.507c0-18.804-8.447-36.292-23.175-47.981l-11.87-9.421c-4.979-3.95-11.932-3.952-16.91 0l-11.869 9.421c-2.996 2.378-5.718 5.007-8.176 7.827v-8.007c26.758-24.124 34.248-63.049 18.098-95.467-1.847-3.707-6.352-5.216-10.057-3.369-3.708 1.847-5.217 6.35-3.369 10.058 7.938 15.935 8.856 33.805 3.537 49.783h-198.804c-1.418-4.282-2.412-8.728-2.918-13.291-1.793-16.168 2.393-32.273 11.788-45.348 2.417-3.364 1.649-8.05-1.714-10.467-3.365-2.417-8.05-1.65-10.467 1.714-11.563 16.093-16.718 35.893-14.515 55.754 2.12 19.116 10.965 36.641 25.012 49.731v8.909c-2.458-2.82-5.179-5.448-8.175-7.826l-11.871-9.421c-4.979-3.951-11.932-3.952-16.909 0l-11.871 9.421c-14.728 11.689-23.175 29.178-23.175 47.981v3.507h-10.625v-36.695c0-7.151-5.818-12.969-12.969-12.969h-17.873v-12.395c0-4.142-3.358-7.5-7.5-7.5s-7.5 3.358-7.5 7.5v236.135h-16.928c-9.71 0-17.61 7.9-17.61 17.61v20.45c0 4.142 3.358 7.5 7.5 7.5h495.422c4.143 0 7.5-3.358 7.5-7.5v-20.45c-.001-9.711-7.901-17.611-17.611-17.611zm-45.77 0v-12.406c0-4.142-3.357-7.5-7.5-7.5s-7.5 3.358-7.5 7.5v12.406h-13.625v-51.236h41.467v51.236zm-64.625 0v-12.406c0-4.142-3.357-7.5-7.5-7.5s-7.5 3.358-7.5 7.5v12.406h-21v-51.236h57v51.236zm-115.636 0h-24.138v-19.771c0-6.655 5.414-12.069 12.069-12.069s12.069 5.414 12.069 12.069zm-12.07-46.84c-14.926 0-27.069 12.143-27.069 27.069v19.771h-17.912v-73.406c0-30.831 13.935-59.399 38.23-78.38l6.751-5.274 6.751 5.274c24.295 18.98 38.229 47.549 38.229 78.38v73.406h-17.911v-19.771c.001-14.926-12.143-27.069-27.069-27.069zm44.981-83.345c-6.135-10.731-14.052-20.492-23.557-28.892h23.557zm-89.961 0v-28.892h23.586c-9.513 8.403-17.449 18.156-23.586 28.892zm93.525-43.892h-97.09c-6.306 0-11.436 5.13-11.436 11.436v162.641h-16.724v-191.327h107.141c4.143 0 7.5-3.358 7.5-7.5s-3.357-7.5-7.5-7.5h-107.141v-16.168h153.41v16.168h-14.308c-4.143 0-7.5 3.358-7.5 7.5s3.357 7.5 7.5 7.5h14.308v191.328h-16.725v-162.642c.001-6.305-5.129-11.436-11.435-11.436zm-168.75 154.171c-4.142 0-7.5 3.358-7.5 7.5v12.406h-21v-51.236h57v51.236h-21v-12.406c0-4.142-3.357-7.5-7.5-7.5zm-64.625-66.236c-4.142 0-7.5 3.358-7.5 7.5v12.406h-12.842v-62.922h41.467v62.922h-13.625v-12.406c0-4.142-3.357-7.5-7.5-7.5zm36.125-43.015h57v62.922h-21v-12.406c0-4.142-3.358-7.5-7.5-7.5s-7.5 3.358-7.5 7.5v12.406h-21zm0-29.92h57v14.919h-57zm353.878 0v14.919h-41.468v-14.919zm-20.342 72.935c-4.143 0-7.5 3.358-7.5 7.5v12.406h-13.625v-62.922h41.467v62.922h-12.843v-12.406c.001-4.142-3.357-7.5-7.499-7.5zm-64.625 0c-4.143 0-7.5 3.358-7.5 7.5v12.406h-21v-62.922h57v62.922h-21v-12.406c0-4.142-3.358-7.5-7.5-7.5zm28.5-58.015h-57v-14.919h57zm56.467-64.584v34.664h-15.843v-34.664zm-95.966-5.075 10.999-8.73 11 8.73c11.121 8.827 17.5 22.033 17.5 36.232v3.507h-57v-3.507c0-14.199 6.378-27.405 17.501-36.232zm-16.535-35.926c-2.88 4.419-6.325 8.54-10.321 12.246h-163.691c-3.971-3.681-7.435-7.793-10.338-12.246zm-241.377 72.158c0-14.199 6.378-27.405 17.5-36.232l11-8.73 11 8.73c11.122 8.827 17.5 22.033 17.5 36.232v3.507h-57zm-15 18.507v14.919h-41.467v-14.919zm-25.625-15h-15.842v-34.664h15.842zm-15.842 122.842h41.467v51.236h-13.625v-12.406c0-4.142-3.358-7.5-7.5-7.5s-7.5 3.358-7.5 7.5v12.406h-12.842zm445.883 81.796h-480.421v-12.95c0-1.439 1.171-2.61 2.61-2.61h475.201c1.439 0 2.61 1.171 2.61 2.61z"/></g></g></svg>