<svg id="Layer_1" enable-background="new 0 0 512.007 512.007" height="512" viewBox="0 0 512.007 512.007" width="512" xmlns="http://www.w3.org/2000/svg"><g><g clip-rule="evenodd" fill-rule="evenodd"><path d="m160.157 260.008c12.394 46.145 51.081 89.999 95.846 89.999s83.452-43.854 95.846-89.999h4.154c11 0 20-8.999 20-20 0-1.727-.222-3.404-.638-5.005-2.237-8.599-10.088-14.995-19.362-14.995-27.275 0-37.563-23.941-37.563-44.372-14.057-3.052-27.656-3.809-40.121-3.837-5.25 7.5-12.595 11.895-22.316 14.5-9.721-2.605-17.066-7-22.316-14.5-12.465.029-26.064.785-40.121 3.837 0 20.431-10.287 44.372-37.563 44.372-9.273 0-17.125 6.396-19.361 14.995-.416 1.601-.638 3.278-.638 5.005 0 11 8.999 20 20 20z" fill="#ffdcd5"/><path d="m156.003 220.009c27.275 0 37.563-23.941 37.563-44.372-12.32 2.675-24.992 7.113-37.562 14.371z" fill="#8690af"/><path d="m318.441 175.637c0 20.431 10.288 44.372 37.563 44.372v-30.001c-12.571-7.258-25.243-11.696-37.563-14.371z" fill="#8690af"/><path d="m256.003 186.3c9.721-2.605 17.066-7 22.316-14.5 12.465.029 26.064.785 40.121 3.837 12.32 2.675 24.992 7.113 37.563 14.371l13.378-38.397c-3.72-2.647-8.338-5.198-13.523-7.577-18.533-8.504-44.317-14.826-62.288-15.607-2.309-7.823-7.549-15.931-14.459-22.603-6.559-6.334-14.622-11.373-23.107-13.647-8.485 2.273-16.548 7.313-23.107 13.647-6.909 6.672-12.15 14.78-14.459 22.603-17.971.781-43.756 7.103-62.288 15.607-5.186 2.379-9.803 4.93-13.523 7.577l13.378 38.397c12.57-7.258 25.243-11.696 37.562-14.371 14.057-3.052 27.656-3.809 40.121-3.837 5.249 7.5 12.594 11.895 22.315 14.5z" fill="#ffc144"/><path d="m156.149 144.034c18.533-8.504 44.317-14.826 62.288-15.607 2.309-7.823 7.549-15.931 14.459-22.603 6.559-6.334 14.622-11.373 23.107-13.647 8.485 2.273 16.548 7.313 23.107 13.647 6.909 6.672 12.15 14.78 14.459 22.603 17.971.781 43.756 7.103 62.288 15.607-2.868-59.074-47.875-92.082-73.039-98.857 0-10.007-2.72-29.102-26.816-35.171-24.096 6.069-26.816 25.165-26.816 35.171-25.162 6.775-70.169 39.782-73.037 98.857z" fill="#ffcd69"/><path d="m156.149 144.034c2.868-59.074 47.875-92.082 73.039-98.857 0-10.007 2.719-29.102 26.816-35.171-79.617 0-144.16 64.543-144.16 144.16 0 28.819 8.638 56.977 24.798 80.839 2.236-8.599 10.088-14.995 19.361-14.995v-30.001l-13.378-38.397c3.721-2.649 8.338-5.199 13.524-7.578z" fill="#ffcd69"/><path d="m282.819 45.176c25.164 6.775 70.17 39.783 73.039 98.857 5.186 2.379 9.803 4.93 13.523 7.577l-13.378 38.397v30.001c9.274 0 17.125 6.396 19.361 14.995 16.16-23.862 24.798-52.02 24.798-80.839 0-79.617-64.543-144.16-144.16-144.16 24.098 6.07 26.817 25.166 26.817 35.172z" fill="#ffcd69"/><path d="m256.003 400.122c-13.409-3.593-31.98-12.076-43.189-28.735-11.48 4.743-21.93 9.19-31.427 13.428.994 17.602 8.138 28.65 25.729 38.806 0 0-1.385 8.531 5.946 18.626 6.161 8.482 18.476 18.068 42.94 24.623 53.579-14.356 48.887-43.25 48.887-43.25 17.592-10.156 24.735-21.204 25.729-38.806-9.496-4.239-19.946-8.685-31.427-13.428-11.207 16.66-29.779 25.143-43.188 28.736z" fill="#ffc144"/><path d="m165.745 502.007h180.568 69.691v-30.001c0-21.445-6.192-36.942-22.733-51.425-13.379-11.714-33.529-22.766-62.651-35.765-.994 17.602-8.138 28.65-25.729 38.806 0 0 4.692 28.893-48.887 43.25-24.464-6.555-36.78-16.141-42.94-24.623-18 11.5-47.057 17.758-47.057 17.758-7.908 15.828-4.11 31.775 0 40.001z" fill="#ff5d7d"/><path d="m166.006 460.006s29.057-6.258 47.057-17.758c-7.332-10.095-5.946-18.626-5.946-18.626-17.592-10.156-24.735-21.204-25.729-38.806-29.121 12.999-49.271 24.051-62.651 35.765-16.542 14.483-22.734 29.98-22.734 51.425v30.001h69.741l.261-2c-4.109-8.227-7.907-24.173.001-40.001z" fill="#60a4ff"/><path d="m291.232 340.872c-10.998 5.8-22.882 9.136-35.228 9.136-12.348 0-24.233-3.337-35.231-9.137l-.002 2.614.003 24.633c-2.707 1.106-5.36 2.195-7.959 3.27 11.209 16.659 29.78 25.142 43.189 28.735 13.409-3.593 31.98-12.076 43.189-28.735-2.6-1.074-5.253-2.164-7.959-3.27l-.001-12.316v-14.93z" fill="#ffdcd5"/><path d="m220.772 355.801v-14.931c-28.875-15.23-51.639-47.445-60.615-80.862h-4.154c-18.468 8.126-26.718 30.876-18.718 47.126 3.597 7.307 4.514 16.383 3.003 24.775l71.793 39.781.733-.303c2.6-1.074 5.253-2.164 7.959-3.27z" fill="#8690af"/><path d="m291.235 355.801-.002 12.316c2.707 1.106 5.36 2.195 7.959 3.27l.733.303 71.794-39.781c-1.511-8.391-.594-17.467 3.003-24.775 8-16.25-.25-39-18.718-47.126h-4.154c-8.976 33.418-31.741 65.634-60.618 80.864z" fill="#8690af"/><g fill="#ffdcd5"><path d="m212.081 371.69-71.794-39.781-26.276-14.559-104.008-95.207v69c21.027 24.913 42.054 49.826 63.082 74.74 7.832 9.28 8.194 9.736 18.729 15.775l36.063 20.674 41.968-12.242c12.198-5.719 26.207-11.769 42.236-18.4z"/><path d="m127.877 402.331-38.637 11.27-79.237-34.48v57.521l86.001 47v-11.637c0-36.398 17.837-55.662 73.841-81.916z"/><path d="m371.719 331.909-71.794 39.781c16.03 6.631 30.038 12.681 42.237 18.4l41.967 12.242 36.064-20.674c10.535-6.039 10.897-6.495 18.729-15.775 21.027-24.913 42.055-49.826 63.082-74.74v-69l-104.009 95.207z"/><path d="m422.767 413.602-38.637-11.27-41.967-12.242c56.004 26.255 73.841 45.518 73.841 81.916v11.637l86.001-47v-57.521z"/></g><path d="m340.37 92.177c-16.092-26.882-41.075-42.564-57.551-47 0-10.007-2.72-29.102-26.816-35.171-24.096 6.069-26.816 25.165-26.816 35.171-16.476 4.436-41.459 20.118-57.551 47h47.372 36.995z" fill="#ffda8f"/><path d="m169.845 390.09c12.198-5.719 26.207-11.769 42.237-18.4l-72.015-39.903-33.452 58.355 21.263 12.189z" fill="#60a4ff"/><path d="m341.817 389.488c-12.198-5.719-26.207-11.769-42.236-18.4l72.015-39.903 33.452 58.355-21.263 12.189z" fill="#60a4ff"/></g><g><path d="m216.005 250.008c13.268-.529 13.258-19.476 0-20h-.007c-13.268.53-13.251 19.478.007 20z"/><path d="m296.008 250.008c13.268-.529 13.258-19.476 0-20h-.007c-13.268.53-13.251 19.478.007 20z"/><path d="m239.867 289.969c9.772 5.742 22.499 5.742 32.272.001 11.225-7.093 1.741-23.497-10.002-17.32-3.726 2.152-8.547 2.15-12.267.001-4.781-2.764-10.898-1.125-13.661 3.657-2.762 4.783-1.125 10.899 3.658 13.661z"/><path d="m256.011 151.092c13.268-.529 13.258-19.476 0-20h-.008c-13.268.53-13.25 19.478.008 20z"/><path d="m256.011 421.077h-.008c-5.522 0-9.996 4.477-9.996 10 .528 13.263 19.479 13.263 20.004 0 0-5.523-4.477-10-10-10z"/><path d="m446.469 372.444 63.177-74.851c1.523-1.804 2.358-4.089 2.358-6.45v-69c0-3.964-2.342-7.555-5.97-9.152-3.631-1.598-7.857-.901-10.782 1.775l-103.139 94.409-9.627 5.334c.344-1.033.747-2.023 1.207-2.959 4.841-9.833 5.379-21.904 1.478-33.118-2.063-5.931-5.262-11.35-9.32-15.947 6.896-5.997 10.986-15.59 10.024-25.262 65.791-100.771-9.436-238.246-129.873-237.217-120.422-1.034-195.676 136.466-129.87 237.216-.962 9.674 3.127 19.265 10.024 25.264-4.058 4.597-7.257 10.017-9.321 15.948-3.901 11.214-3.363 23.285 1.478 33.118.46.935.863 1.925 1.207 2.959l-9.627-5.334-103.139-94.411c-2.925-2.677-7.154-3.374-10.782-1.775-3.628 1.597-5.97 5.188-5.97 9.152v69c0 2.361.835 4.646 2.358 6.45l63.081 74.739.096.112c8.361 9.908 9.67 11.22 21.303 17.889l15.667 8.981-12.595 3.674-75.92-33.036c-3.093-1.346-6.653-1.042-9.472.806-2.82 1.848-4.519 4.993-4.519 8.364v57.521c0 3.657 1.996 7.021 5.204 8.775l80.797 44.156v12.433c0 5.523 4.478 10 10 10h115.004c13.268-.529 13.258-19.476 0-20h-37.538c-2.208-6.303-3.129-14.941-.224-23.452 8.046-2.046 24.05-6.619 37.698-13.605 8.324 8.062 21.544 15.973 42.472 21.581 1.695.455 3.481.455 5.176 0 45.6-12.218 54.605-35.37 56.106-47.201 12.636-8.277 20.147-17.715 23.649-29.933 54.366 25.616 67.656 42.425 67.656 72.609v20.001h-46.727c2.35-10.783 1.962-23.877-4.329-36.471-2.47-4.94-8.477-6.945-13.415-4.477-4.941 2.468-6.945 8.474-4.478 13.415 4.875 9.756 4.044 20.216 1.482 27.532h-37.53c-13.268.529-13.258 19.476 0 20h114.996c5.522 0 10-4.477 10-10v-12.433l80.797-44.156c3.208-1.753 5.204-5.118 5.204-8.775v-57.521c0-3.371-1.698-6.516-4.519-8.364-2.818-1.848-6.378-2.151-9.472-.806l-75.92 33.036-12.595-3.674 15.667-8.981c11.637-6.668 12.946-7.98 21.307-17.888zm-63.623 19.096-36.768-10.725c-7.219-3.369-14.972-6.807-23.278-10.368l45.366-25.137 23.577 41.129zm-216.919-10.725-36.766 10.724-8.897-5.1 23.577-41.129 45.366 25.137c-8.308 3.561-16.061 6.999-23.28 10.368zm11.586-278.639h44.927c-4.601 5.085-8.424 10.784-11.111 16.753-12.92 1.312-28.701 4.782-43.221 9.691 1.99-9.804 5.284-18.613 9.405-26.444zm61.675-57c0-16.712 8.983-22.326 16.815-24.788 7.832 2.462 16.815 8.075 16.815 24.788 0 4.521 3.034 8.48 7.4 9.656 10.333 2.782 26.628 11.789 40.415 27.344h-64.571c-.04 0-.079 0-.119 0h-64.573c13.784-15.553 30.078-24.56 40.417-27.344 4.367-1.175 7.401-5.134 7.401-9.656zm106.816 163.102c-9.11-3.505-13.493-11.725-15.601-18.939 5.178 1.767 10.398 3.94 15.6 6.607zm-180.001-12.333c5.207-2.669 10.43-4.843 15.613-6.611-2.107 7.254-6.492 15.458-15.613 18.952zm-4.356-20.132-6.933-19.899c16.338-8.769 44.455-16.641 64.157-17.497 4.269-.186 7.947-3.062 9.156-7.161 3.078-10.43 14.424-23.792 27.976-28.613 13.552 4.822 24.897 18.184 27.976 28.613 1.209 4.098 4.888 6.975 9.156 7.161 19.702.856 47.819 8.728 64.157 17.497l-6.933 19.899c-26.231-12.201-51.917-13.967-72.017-14.014h-.023c-3.263 0-6.321 1.592-8.192 4.266-3.222 4.603-7.64 7.688-14.124 9.809-6.484-2.12-10.902-5.206-14.124-9.809-1.871-2.674-4.93-4.266-8.192-4.266h-.023c-20.099.047-45.785 1.814-72.017 14.014zm182.252-47.192c-14.521-4.909-30.302-8.379-43.222-9.691-2.687-5.969-6.51-11.668-11.111-16.753h44.926c4.122 7.83 7.417 16.639 9.407 26.444zm-187.896 101.387c29.221 0 44.237-22.166 47.067-45.979 9.174-1.494 17.92-2.03 25.863-2.181 6.07 6.7 14.131 11.337 24.482 14.11 1.695.455 3.48.455 5.176 0 10.352-2.773 18.412-7.41 24.482-14.11 7.944.151 16.691.687 25.865 2.181 2.839 23.759 17.891 45.978 47.064 45.978 13.26.546 13.268 19.451.001 20h-4.154c-4.523 0-8.484 3.037-9.658 7.406-10.681 37.792-41.117 81.236-86.188 82.595-45.089-1.377-75.478-44.76-86.188-82.594-1.174-4.369-5.135-7.406-9.658-7.406h-4.154c-13.269-.551-13.259-19.454 0-20zm209.747 72.71c-3.451 7.011-5.058 15.232-4.687 23.663l-59.83 33.151.002-12.79c26.531-16.347 46.472-43.743 57.015-73.609 3.595 3.091 6.404 7.199 8.031 11.874 2.155 6.192 1.962 12.648-.531 17.711zm-176.862 26.683c6.96 6.925 14.289 12.72 21.882 17.34l.002 12.79-59.83-33.151c.371-8.431-1.235-16.652-4.687-23.662-2.492-5.063-2.686-11.52-.531-17.712 1.626-4.675 4.436-8.783 8.031-11.874 7.43 21.204 19.671 40.886 35.133 56.269zm41.884 26.582c16.485 5.359 33.978 5.358 50.463 0l-.002 12.133c0 2.354.824 4.572 2.25 6.321-9.327 8.689-20.719 13.201-27.479 15.28-6.755-2.078-18.151-6.589-27.479-15.28 1.425-1.749 2.25-3.967 2.25-6.321zm159.392-201.818c0 21.878-5.298 43.229-15.412 62.439-2.598-2.085-5.549-3.748-8.748-4.882l-.001-20.022 12.821-36.799c1.463-4.199-.022-8.859-3.646-11.438-2.868-2.041-6.158-4.007-9.76-5.878-1.299-13.71-4.692-26.078-9.493-37.095 8.11-5.411 4.337-18.283-5.557-18.314h-4.421c-15.243-22.953-36.438-37.798-53.583-44.377-.636-5.008-1.934-9.63-3.852-13.812 58.321 14.57 101.652 67.409 101.652 130.178zm-166.67-130.177c-1.918 4.182-3.216 8.803-3.852 13.812-17.151 6.58-38.345 21.426-53.586 44.377h-4.42c-9.9.033-13.663 12.907-5.558 18.314-4.8 11.017-8.193 23.386-9.492 37.096-3.601 1.871-6.892 3.836-9.759 5.877-3.623 2.578-5.108 7.239-3.646 11.438l12.821 36.799v20.021c-3.199 1.134-6.15 2.797-8.749 4.883-41.273-75.954 4.141-173.405 86.241-192.617zm-142.672 335.557-60.819-72.059v-42.633l87.258 79.873c.579.53 1.219.99 1.905 1.371l17.179 9.519-23.432 40.877-6.125-3.511c-8.962-5.137-8.962-5.137-15.966-13.437zm-60.82 34.834 65.247 28.392c2.144.932 4.546 1.085 6.79.431l13.744-4.009c-12.484 13.225-18.74 28.24-19.66 47.654l-66.121-36.136zm143.899 55.85c-2.967.639-5.483 2.591-6.84 5.306-6.292 12.594-6.68 25.688-4.33 36.471h-46.727v-8.197c.002-.112.002-.225 0-.337v-11.468c0-30.184 13.291-46.994 67.659-72.61 3.505 12.216 11.024 21.662 23.647 29.934.321 2.532.987 5.584 2.281 8.936-15.869 7.621-35.465 11.917-35.69 11.965zm135.989-35.268c-3.752 2.166-5.792 5.911-4.9 10.127.114 2.01.019 20.186-38.986 31.405-39.005-11.219-39.101-29.395-38.986-31.405.892-4.216-1.148-7.961-4.9-10.127-12.187-7.037-17.876-13.679-19.924-23.958 5.459-2.39 11.246-4.862 17.377-7.432 14.031 16.23 33.11 23.333 43.846 26.209 1.695.455 3.48.454 5.176 0 10.756-2.882 29.824-9.988 43.846-26.209 6.132 2.57 11.918 5.042 17.378 7.432-2.046 10.282-7.714 16.907-19.927 23.958zm126.867 7.81 65.247-28.392v36.333l-66.121 36.136c-.92-19.415-7.176-34.43-19.66-47.655l13.744 4.009c2.242.653 4.645.501 6.79-.431zm-17.662-46.279-23.433-40.876 17.179-9.519c.687-.38 1.326-.841 1.905-1.371l87.258-79.873v42.633l-60.725 71.946-.095.113c-7.004 8.299-7.004 8.299-15.966 13.436z"/><path d="m256.011 492.007h-.008c-5.522 0-9.996 4.477-9.996 10 .528 13.263 19.479 13.263 20.004 0 0-5.523-4.477-10-10-10z"/></g></g></svg>