<svg id="Layer_1" enable-background="new 0 0 511.994 511.994" height="512" viewBox="0 0 511.994 511.994" width="512" xmlns="http://www.w3.org/2000/svg"><g><g><path d="m247.112 455.564c5.748 2.126 12.033 2.093 17.757-.099 48.216-18.462 139.125-76.865 193.248-138.45 6.305-7.174-2.889-14.391 2.291-21.594 27.877-38.754 50.478-86.8 38.831-130.398-6.735-25.211-19.907-48.935-39.317-68.514-52.369-52.824-134.591-55.373-186.912-7.368-9.613 8.82-24.415 8.817-34.026-.004-52.297-47.996-134.484-45.511-186.912 7.372-19.41 19.579-32.582 43.303-39.317 68.514-11.647 43.597 10.954 91.644 38.831 130.397 5.231 7.272-4.03 14.484 2.116 21.594 55.716 64.457 144.942 120.62 193.41 138.55z" fill="#fd9468"/><g><path d="m499.24 165.023c-6.735-25.211-19.907-48.935-39.317-68.514-31.369-31.642-73.449-45.236-113.399-40.74 30.215 3.382 59.831 16.967 83.399 40.74 19.41 19.579 32.582 43.303 39.317 68.514z" fill="#fe7d43"/></g><path d="m53.702 317.015c55.716 64.456 144.942 120.619 193.41 138.549 5.748 2.126 12.033 2.093 17.757-.099 48.216-18.462 139.125-76.865 193.248-138.45z" fill="#57be92"/><path d="m428.117 317.015c-51.99 59.158-137.917 115.373-187.347 136.076 2.18.889 4.3 1.717 6.341 2.473 5.748 2.126 12.033 2.093 17.757-.099 48.216-18.461 139.125-76.865 193.248-138.45z" fill="#22b37f"/><path d="m36.586 295.421c5.23 7.271 10.975 14.48 17.121 21.59h404.406c6.304-7.173 12.116-14.389 17.296-21.59 27.877-38.754 35.469-86.798 23.822-130.395h-486.468c-11.646 43.597-4.054 91.641 23.823 130.395z" fill="#f9f7f8"/><path d="m478.432 291.045c20.564-30.378 30.46-70.715 24.257-109.521-.852-5.55-2.005-11.057-3.458-16.496 0-.001 0-.001-.001-.002h-30c11.647 43.598 4.054 91.642-23.822 130.395-5.18 7.201-10.987 14.417-17.29 21.59h29.995c2.951-3.358 5.789-6.726 8.51-10.096.603-.795 6.375-7.747 11.809-15.87z" fill="#efedef"/></g><path d="m185.815 190.091c-.025 0-.05 0-.074 0-4.143.04-7.468 3.43-7.428 7.572l.606 62.597-46.111-66.771c-1.864-2.702-5.266-3.873-8.404-2.898-3.133.977-5.268 3.878-5.268 7.16v85.429c0 4.142 3.357 7.5 7.5 7.5s7.5-3.358 7.5-7.5v-61.371l44.091 63.847c2.331 3.369 6.172 4.818 9.776 3.689 3.711-1.159 6.109-4.711 6.109-9.123l-.8-82.705c-.039-4.116-3.389-7.426-7.497-7.426zm325.693 2.396c-2.948-37.969-19.338-74.104-46.259-101.258-54.919-55.395-141.588-58.74-197.31-7.614-6.695 6.144-17.187 6.144-23.884-.003-55.715-51.133-142.382-47.788-197.31 7.617-26.873 27.106-43.317 63.369-46.26 101.257-2.965 38.177 7.693 76.289 30.01 107.314 52.028 72.332 159.432 142.605 214.013 162.798 3.665 1.356 7.509 2.033 11.351 2.033 3.965 0 7.928-.721 11.691-2.162 27.842-10.661 66.761-32.939 104.106-59.594 3.371-2.406 4.153-7.09 1.747-10.461s-7.088-4.156-10.462-1.748c-35.825 25.571-74.433 47.716-100.755 57.794-4.011 1.537-8.441 1.562-12.474.069-27.854-10.304-67.67-32.963-103.911-59.135-21.986-15.878-50.163-38.349-75.238-64.883h370.421c-14.445 14.973-31.506 30.332-50.657 45.542-3.244 2.576-3.785 7.294-1.209 10.538s7.294 3.784 10.537 1.208c33.401-26.522 59.669-51.176 81.841-81.999 22.319-31.025 32.976-69.136 30.012-107.313zm-42.188 98.555c-4.332 6.023-9.232 12.195-14.634 18.469h-397.551c-5.072-6-9.924-12.163-14.461-18.47-20.252-28.154-29.923-62.743-27.232-97.394.555-7.146 1.637-14.202 3.206-21.122h92.224c4.143 0 7.5-3.358 7.5-7.5s-3.357-7.5-7.5-7.5h-87.977c7.113-20.836 18.851-39.948 34.503-55.736 49.228-49.655 126.762-52.789 176.515-7.126 12.384 11.365 31.785 11.366 44.167.004 49.761-45.654 127.296-42.526 176.517 7.122 15.652 15.789 27.39 34.9 34.503 55.736h-343.229c-4.143 0-7.5 3.358-7.5 7.5s3.357 7.5 7.5 7.5h347.476c1.569 6.92 2.651 13.977 3.206 21.122 2.69 34.652-6.982 69.241-27.233 97.395zm-387.067-100.951c-4.143 0-7.5 3.358-7.5 7.5v85.589c0 4.142 3.357 7.5 7.5 7.5s7.5-3.358 7.5-7.5v-85.589c0-4.142-3.357-7.5-7.5-7.5zm167.33 2.531h-23.523c-1.991 0-3.901.792-5.309 2.202-1.406 1.41-2.195 3.321-2.191 5.313v.069.003 81.622c.028 2.424.63 4.931 2.384 6.672 1.405 1.395 3.305 2.177 5.284 2.177h.028c.71-.003 17.464-.067 24.146-.184 23.306-.407 40.222-20.95 40.222-48.845 0-29.325-16.493-49.029-41.041-49.029zm.558 82.876c-3.742.065-10.916.115-16.438.146-.032-9.699-.083-26.259-.083-34.084 0-6.557-.028-23.883-.046-33.938h16.01c19.2 0 26.041 17.578 26.041 34.029-.001 16.088-7.975 33.542-25.484 33.847zm72.43-85.407c-4.143 0-7.5 3.358-7.5 7.5v85.589c0 4.142 3.357 7.5 7.5 7.5s7.5-3.358 7.5-7.5v-85.589c0-4.142-3.357-7.5-7.5-7.5zm82.34 7.32c-.025-.069-.053-.138-.081-.207-1.462-3.553-4.888-5.847-8.729-5.847h-.009c-3.846.004-7.271 2.306-8.729 5.864-.022.057-.046.114-.067.172l-32.139 84.384c-1.475 3.871.469 8.204 4.34 9.678 3.864 1.475 8.203-.468 9.678-4.339l6.164-16.186h41.285l6.1 16.164c1.474 3.924 5.872 5.801 9.665 4.369 3.875-1.463 5.831-5.79 4.368-9.665zm-23.859 58.519 15.024-39.448 14.887 39.448z"/></g></svg>