<svg id="Layer_1" enable-background="new 0 0 512.004 512.004" height="512" viewBox="0 0 512.004 512.004" width="512" xmlns="http://www.w3.org/2000/svg"><g><g clip-rule="evenodd" fill-rule="evenodd"><path d="m210.772 368.108v.007c0-.002 0-.005 0-.007zm-22.465-22.458c12.405 0 22.462 10.054 22.465 22.458 0-.001 0-.003 0-.004s0-.003 0-.004c-.008-12.4-10.063-22.45-22.465-22.45zm-15.873 38.362c-4.072-4.066-6.592-9.687-6.592-15.897 0-12.407 10.058-22.465 22.465-22.465 12.404 0 22.459 10.052 22.465 22.454v.004.007c0 12.407-10.058 22.465-22.465 22.465-6.198 0-11.809-2.51-15.873-6.568zm105.869 27.442c1.057-6.913 5.265-12.788 11.112-16.115 4.655-8.059 8.666-17.094 11.817-27.224v-.006-29.003c-13.648 6.976-29.046 10.899-45.23 10.899-16.252 0-31.632-3.929-45.236-10.886-.016-.008-.032-.016-.048-.025-29.58-15.147-50.75-44.608-54.214-79.089h-.502c-11 0-20-8.999-20-20 0 31.911-31.783 35.289-10.667 75.411 25.976 49.355-23.818 43.386 2.989 89.817-25.835 15.346-32.322 29.444-32.322 56.769v40.001h70.002v-40.001s33.279.409 67.713-16.066c-.119-.936-.18-1.891-.18-2.859 0-12.407 10.058-22.465 22.465-22.465 4.001 0 7.758 1.046 11.012 2.879 3.928-3.653 7.712-7.656 11.289-12.037zm-66.808-19.041c12.407 0 22.465 10.058 22.465 22.465s-10.058 22.465-22.465 22.465-22.465-10.058-22.465-22.465 10.058-22.465 22.465-22.465z" fill="#ffd0c7"/><path d="m256.003 70.006c21.029 0 40.841 5.482 58.075 15.088 1.28-4.927 1.928-9.998 1.928-15.088 0-33.139-26.864-60.003-60.003-60.003s-60.003 26.864-60.003 60.003c0 5.091.648 10.161 1.928 15.088 17.234-9.606 37.045-15.088 58.075-15.088z" fill="#8690af"/><path d="m314.077 85.094c-17.234-9.606-37.045-15.088-58.075-15.088s-40.841 5.482-58.075 15.088c-36.855 20.542-61.925 59.941-61.925 104.912v50.001c0-11 8.999-20 20-20 30.45 0 28.932-29.396 48.325-34.593 19.394-5.196 21.225 15.875 51.675 15.875s32.282-21.072 51.675-15.875 17.875 34.593 48.326 34.593c11 0 20 8.999 20 20v-50.001c0-44.971-25.071-84.37-61.926-104.912z" fill="#8690af"/><path d="m256.002 201.289c-30.45 0-32.281-21.072-51.675-15.875-19.393 5.197-17.875 34.593-48.325 34.593-11.001 0-20 9-20 20s9 20 20 20h.502c3.466 34.5 24.657 63.975 54.264 79.114 13.603 6.956 28.982 10.885 45.234 10.885 16.186 0 31.585-3.924 45.234-10.902 29.461-15.06 50.773-44.345 54.264-79.098h.503c11 0 20-9 20-20 0-11.001-9-20-20-20-30.45 0-28.932-29.396-48.326-34.593-19.393-5.196-21.225 15.876-51.675 15.876z" fill="#ffd0c7"/><path d="m210.768 339.12c-29.606-15.139-50.797-44.614-54.264-79.114h-.502c-11 0-20-8.999-20-20 0 31.911-31.783 35.289-10.667 75.411 25.976 49.355-23.818 43.386 2.989 89.817 10.922-6.487 25.301-13.197 44.109-21.223-4.072-4.066-6.592-9.687-6.592-15.897 0-12.407 10.058-22.465 22.465-22.465 12.405 0 22.462 10.054 22.465 22.458z" fill="#8690af"/><g fill="#faf7f6"><path d="m323.698 345.65c-12.405 0-22.462 10.055-22.465 22.459v.006c0 12.407 10.058 22.465 22.465 22.465 6.198 0 11.809-2.509 15.873-6.568 4.072-4.066 6.592-9.687 6.592-15.897 0-12.407-10.058-22.465-22.465-22.465z"/><path d="m322.974 414.878c0-12.407-10.058-22.465-22.465-22.465-4.035 0-7.821 1.064-11.094 2.926-5.847 3.327-10.055 9.202-11.112 16.115-.171 1.116-.259 2.26-.259 3.424 0 12.407 10.058 22.465 22.465 22.465s22.465-10.057 22.465-22.465z"/><path d="m278.467 443.078c0-8.406-4.617-15.734-11.453-19.586-3.254-1.833-7.011-2.879-11.012-2.879-12.407 0-22.465 10.058-22.465 22.465 0 .969.061 1.923.18 2.859 1.405 11.057 10.846 19.606 22.285 19.606 12.407 0 22.465-10.058 22.465-22.465z"/><circle cx="211.495" cy="414.878" r="22.465"/><path d="m188.307 390.58c12.407 0 22.465-10.058 22.465-22.465v-.007c0-.001 0-.003 0-.004-.006-12.402-10.062-22.454-22.465-22.454-12.407 0-22.465 10.058-22.465 22.465 0 6.209 2.519 11.831 6.592 15.897 4.064 4.059 9.675 6.568 15.873 6.568z"/></g><path d="m322.974 414.878c0 12.407-10.058 22.465-22.465 22.465s-22.465-10.058-22.465-22.465c0-1.164.088-2.308.259-3.424-3.578 4.382-7.361 8.384-11.289 12.038 6.836 3.852 11.453 11.18 11.453 19.586 0 12.407-10.058 22.465-22.465 22.465-11.439 0-20.88-8.549-22.285-19.606-34.434 16.475-67.713 16.066-67.713 16.066v40.001h179.996v-115.224c-2.083-.906-4.226-1.828-6.429-2.768-4.064 4.059-9.676 6.568-15.873 6.568-12.407 0-22.465-10.058-22.465-22.465-3.15 10.13-7.162 19.165-11.817 27.224 3.273-1.862 7.059-2.926 11.094-2.926 12.407 0 22.464 10.058 22.464 22.465z" fill="#ffc144"/><path d="m346 386.78v115.225h70.002v-40.001c0-27.324-6.487-41.423-32.322-56.768-9.642-5.728-21.979-11.629-37.68-18.456z" fill="#ffd0c7"/><path d="m355.5 260.006c-3.491 34.753-24.803 64.038-54.264 79.098-.001.001-.003.001-.004.002v29.003c.003-12.404 10.06-22.459 22.465-22.459 12.407 0 22.465 10.058 22.465 22.465 0 6.209-2.519 11.831-6.592 15.897 2.203.94 4.346 1.862 6.429 2.768 15.701 6.827 28.038 12.728 37.682 18.453 26.806-46.429-22.988-40.46 2.988-89.815 21.117-40.122-10.667-43.5-10.667-75.411 0 11-8.999 20-20 20h-.502z" fill="#8690af"/></g><g><path d="m396.717 401.76c10.162-22.532 3.233-34.944-2.432-45.093-5.387-9.648-9.278-16.619 1.234-36.593 15.413-29.286 6.139-44.531-1.313-56.781-4.401-7.235-8.203-13.483-8.203-23.287v-50.001c0-46.234-24.261-86.909-60.722-109.961 6.356-41.675-27.088-80.386-69.278-80.041-42.186-.347-75.64 38.369-69.278 80.041-36.46 23.052-60.722 63.727-60.722 109.961v50.001c0 9.804-3.801 16.052-8.203 23.287-7.452 12.25-16.727 27.495-1.313 56.781 10.512 19.974 6.62 26.944 1.234 36.593-5.664 10.146-12.594 22.561-2.435 45.088-21.809 15.108-29.283 31.489-29.283 60.248v40.001c0 5.522 4.477 10 10 10h114.997c13.268-.528 13.258-19.476 0-20h-34.994v-20.468c11.325-.943 30.832-3.764 51.927-12.162 16.128 27.508 58.33 17.729 60.479-14.37 27.781 11.086 54.567-18.337 40.99-44.926 2.291-.408 4.5-1.056 6.599-1.919v93.845h-35.001c-13.268.529-13.258 19.476 0 20h115.003c5.522 0 10-4.478 10-10v-40.001c-.001-28.745-7.477-45.131-29.286-60.243zm-42.587-22.335c7.927-20.136-7.68-43.465-29.31-43.756 1.666-1.341 3.298-2.734 4.894-4.178 18.355-16.604 30.484-38.627 34.666-62.676 2.82-.821 5.469-2.046 7.881-3.608 8.332 16.215 18.296 21.871 5.558 45.552-15.562 29.568-7.487 44.033-.998 55.656 4.313 7.726 7.395 13.249 2.589 25.036-7.348-3.863-15.736-7.81-25.28-12.026zm-86.028 33.526c-7.397-3.095-16.801-3.095-24.198 0-.888-15.09-12.13-27.443-26.706-30.036 2.284-4.441 3.574-9.473 3.574-14.8v-.002l-.002-13.932c22.412 7.741 48.046 7.744 70.464-.009l-.002 13.941v.002c0 5.328 1.29 10.36 3.574 14.801-14.575 2.592-25.817 14.945-26.704 30.035zm-92.26-44.837c.687-16.54 24.25-16.528 24.931 0-.687 16.542-24.251 16.529-24.931 0zm80.16-141.193c5.523 0 10-4.478 10-10v-6.354c12.629-1.915 20.346-7.253 26.291-11.367 6.238-4.317 8.066-5.394 12.795-4.127 4.368 1.171 7.122 4.889 11.614 11.359 6.906 9.949 16.365 23.574 39.3 23.574 13.263.548 13.265 19.451 0 20h-.502c-5.136 0-9.437 3.891-9.95 9-14.709 107.414-164.43 107.333-179.096 0-.514-5.109-4.814-9-9.95-9h-.502c-13.265-.55-13.263-19.452.001-20 22.934 0 32.393-13.625 39.299-23.573 4.492-6.472 7.247-10.189 11.614-11.36 5.26-1.311 6.641.007 12.795 4.127 5.945 4.113 13.662 9.452 26.292 11.367v6.354c-.001 5.522 4.476 10 9.999 10zm-44.507 175.492c6.874 0 12.465 5.592 12.465 12.465-.685 16.536-24.248 16.532-24.931 0 .001-6.873 5.593-12.465 12.466-12.465zm99.737-34.299c0-6.873 5.592-12.465 12.466-12.465 16.537.685 16.531 24.249 0 24.931-6.874 0-12.466-5.592-12.466-12.466zm-105.232-298.108c2.755-66.353 97.276-66.302 100.006 0v.001c-30.439-13.233-69.568-13.233-100.006-.001zm50.003 10c60.654 0 110 49.346 110 109.999v21.715c-3.129-1.11-6.495-1.714-10-1.714-12.472 0-16.834-6.283-22.87-14.979-5.255-7.57-11.211-16.149-22.867-19.273-13.867-3.716-22.454 2.226-29.353 6.998-6.345 4.391-12.337 8.537-24.911 8.537s-18.566-4.146-24.911-8.537c-6.898-4.773-15.485-10.716-29.352-6.998-11.656 3.124-17.612 11.703-22.867 19.273-6.036 8.695-10.398 14.979-22.87 14.979-3.505 0-6.871.604-10 1.714v-21.715c0-60.653 49.346-109.999 110.001-109.999zm-120.819 286.41c6.488-11.623 14.563-26.087-.999-55.656-10.136-19.258-6.057-25.963.701-37.072 1.575-2.59 3.273-5.381 4.857-8.479 2.412 1.562 5.062 2.787 7.882 3.608 4.486 26.064 18.671 50.075 39.553 66.853-21.627.295-37.229 23.624-29.304 43.755-9.544 4.215-17.932 8.161-25.28 12.025-4.805-11.789-1.725-17.305 2.59-25.034zm30.943 85.588c-5.433-.193-10.222 4.59-10.123 9.999v30.001h-50.002v-30.001c0-30.608 6.095-40.937 64.944-66.466 3.493 2.219 7.435 3.79 11.658 4.541-9.737 18.265 1.294 41.728 21.047 46.306-20.997 5.679-37.312 5.629-37.524 5.62zm89.875 3.539c-6.304 0-11.529-4.704-12.352-10.786-.006-.052-.013-.104-.02-.155-.953-7.347 4.956-14.042 12.372-13.989 16.537.683 16.533 24.248 0 24.93zm44.508-28.2c-6.873 0-12.465-5.592-12.465-12.465.685-16.536 24.247-16.531 24.93 0-.001 6.873-5.592 12.465-12.465 12.465zm105.492 64.661h-50.002v-89.778c44.974 20.914 50.002 31.997 50.002 59.777z"/><path d="m216.005 230.006h-.007c-5.523 0-9.997 4.478-9.997 10 .529 13.263 19.479 13.263 20.004 0 0-5.523-4.477-10-10-10z"/><path d="m296.008 250.006c13.268-.529 13.258-19.476 0-20h-.008c-13.268.53-13.25 19.478.008 20z"/><path d="m236.207 276.307c-2.762 4.782-1.124 10.898 3.659 13.66 9.773 5.744 22.499 5.743 32.272.001 11.225-7.092 1.742-23.499-10.002-17.32-3.725 2.152-8.544 2.151-12.269.001-4.781-2.765-10.898-1.126-13.66 3.658z"/><path d="m256.002 492.004h-.007c-5.523 0-9.996 4.478-9.996 10 .528 13.263 19.478 13.263 20.003 0 0-5.523-4.477-10-10-10z"/></g></g></svg>