<svg id="Layer_1" enable-background="new 0 0 512 512" height="512" viewBox="0 0 512 512" width="512" xmlns="http://www.w3.org/2000/svg"><g><path d="m487.897 340.995h-440.206v-304.46h440.206c11.21 0 20.297 9.087 20.297 20.297v263.865c0 11.211-9.087 20.298-20.297 20.298z" fill="#ffb300"/><path d="m487.897 36.535h-30.446c11.21 0 20.297 9.087 20.297 20.297v279.088c0 11.21-9.087 20.297-20.297 20.297h30.446c11.21 0 20.297-9.087 20.297-20.297v-279.087c0-11.21-9.087-20.298-20.297-20.298z" fill="#ffa000"/><path d="m487.897 356.218h-440.206v-106.561h460.503v86.264c0 11.21-9.087 20.297-20.297 20.297z" fill="#57be92"/><path d="m477.748 249.657v86.264c0 11.21-9.087 20.297-20.297 20.297h30.446c11.21 0 20.297-9.087 20.297-20.297v-86.264z" fill="#22b37f"/><path d="m47.691 143.096h460.503v106.561h-460.503z" fill="#fff"/><path d="m477.748 143.096h30.446v106.561h-30.446z" fill="#efedef"/><path d="m3.806 504.896v-482.954c0-12.118 9.824-21.942 21.942-21.942 12.119 0 21.942 9.824 21.942 21.942v482.953c0 3.923-3.181 7.104-7.104 7.104h-29.676c-3.924.001-7.104-3.18-7.104-7.103z" fill="#355f7f"/><path d="m316.106 233.503c9.345-9.604 15.117-22.701 15.117-37.127s-5.772-27.523-15.117-37.127c-.152-.189-.313-.373-.488-.548s-.359-.336-.548-.488c-9.603-9.345-22.701-15.117-37.127-15.117s-27.524 5.772-37.127 15.117c-.189.152-.373.313-.548.488s-.337.359-.488.548c-9.345 9.603-15.117 22.7-15.117 37.127 0 14.426 5.772 27.523 15.117 37.127.152.189.313.373.488.548s.359.336.548.488c9.603 9.345 22.701 15.117 37.127 15.117s27.523-5.772 37.127-15.117c.189-.152.373-.313.548-.488s.336-.359.488-.548zm-77.558-30.466h23.316l-16.474 16.473c-3.43-4.813-5.821-10.412-6.842-16.473zm6.842-29.794 16.474 16.473h-23.316c1.021-6.061 3.412-11.66 6.842-16.473zm71.947 16.474h-23.316l16.474-16.473c3.43 4.812 5.821 10.411 6.842 16.473zm-32.734-9.419v-23.316c6.062 1.022 11.66 3.412 16.474 6.843zm-13.321 0-16.474-16.473c4.813-3.431 10.412-5.821 16.474-6.843zm0 32.157v23.316c-6.062-1.022-11.66-3.412-16.474-6.843zm13.321 0 16.474 16.473c-4.813 3.431-10.412 5.821-16.474 6.843zm9.418-9.418h23.316c-1.022 6.061-3.412 11.66-6.843 16.473z" fill="#6c7fd8"/></g></svg>