<svg id="Capa_1" enable-background="new 0 0 512.009 512.009" height="512" viewBox="0 0 512.009 512.009" width="512" xmlns="http://www.w3.org/2000/svg"><g><g><ellipse cx="256.123" cy="122.26" fill="#fee8c7" rx="112.483" ry="114.76"/><ellipse cx="256.123" cy="122.26" fill="#fedba6" rx="77.833" ry="79.408"/><path d="m256.004 36.973c-3.452 0-6.802.436-10 1.252 17.419 4.448 30.299 20.243 30.299 39.047v40.299h20v-40.299c.001-22.256-18.042-40.299-40.299-40.299z" fill="#f6ab31"/><g><path d="m246.005 38.225c-17.419 4.448-30.3 20.243-30.3 39.047v40.299h64.599v-40.299c0-18.805-12.88-34.599-30.299-39.047z" fill="#fdb441"/></g><path d="m256.004 36.973c-3.452 0-6.802.436-10 1.252 17.419 4.448 30.299 20.243 30.299 39.047v40.299h20v-40.299c.001-22.256-18.042-40.299-40.299-40.299z" fill="#f6ab31"/><path d="m341.941 399.202c-.157-17.606 15.511-17.75 15.354-35.355-.157-17.603-15.826-17.46-15.983-35.063-.157-17.604 15.512-17.748 15.354-35.352-.157-17.603-15.826-17.459-15.983-35.063-9.259 0-175.59 0-185.035 0-.157 17.603-15.826 17.46-15.983 35.063-.157 17.604 15.512 17.748 15.354 35.352-.157 17.604-15.826 17.46-15.983 35.064-.157 17.605 15.512 17.749 15.354 35.355s-15.826 17.462-15.983 35.068h219.516c-.156-17.607-15.825-17.463-15.982-35.069z" fill="#5a5a5a"/><path d="m91.338 358.915v-60.582l-17.667-61.313-47-23.69h-7.42c-5.616 6.576-4.64 16.308 3 21.741l33.222 23.091-6.451 30.979-10.646-16.785c-1.328-2.094-4.227-2.919-6.656-1.895-7.572 3.194-11.184 11.043-8.332 18.105l16.942 41.949.107-.144-.027.128 17.323 22.565c1.084 1.412 1.67 3.142 1.667 4.922l-.256 146.514h36.838l7.022-10.167z" fill="#8ac9fe"/><g><path d="m103.159 355.243c0-54.523.467-53.671-1.402-60.122l-14.777-50.985c-.851-4.544-3.983-8.484-8.492-10.684l-48.212-23.525c-2.57-1.254-5.727-1.01-8.021.62-1.168.83-2.17 1.766-3.029 2.771l41.261 20.133c4.509 2.2 7.641 6.14 8.492 10.684l14.777 50.985c1.869 6.447 1.402 5.54 1.402 60.122l10.824 110.994v38.264h18v-38.263z" fill="#60b7ff"/></g><path d="m462.987 289.141-3.956-18.997-13.36-.122-2.333-9.022 42.667-34-11.222-13.682-41.261 20.133c-4.509 2.2-7.641 6.14-8.492 10.684l-14.777 50.985c-.93 3.209-1.402 6.534-1.402 9.875v50.247c-12.723 130.466-10.824 100.296-10.824 149.257h36.838l-.027-15.813 18.027 15.813-10.849-33.039v-112.551l20.087-28.57 15.902-46.666-7.798-5.914z" fill="#8ac9fe"/><path d="m480.29 270.462c-2.429-1.025-5.328-.2-6.657 1.895l-3.427 5.403c1.626 3.315 1.887 7.164.416 10.808l-16.942 41.949-.107-.144.027.128c-18.817 24.512-18.996 23.828-18.989 27.487l.254 146.512h18l-.254-146.512c-.003-1.78.583-3.51 1.667-4.922l17.322-22.566-.027-.128.107.144 16.942-41.949c2.852-7.062-.76-14.911-8.332-18.105z" fill="#60b7ff"/><path d="m357.618 399.202c-.157-17.606 15.512-17.749 15.354-35.355-.157-17.603-15.826-17.46-15.983-35.063-.157-17.604 15.512-17.747 15.354-35.352-.157-17.603-15.826-17.46-15.983-35.063h-21.677c.157 17.603 15.826 17.46 15.983 35.063.157 17.604-15.512 17.748-15.354 35.352.157 17.603 15.826 17.46 15.983 35.063.157 17.606-15.512 17.749-15.354 35.355.157 17.606 15.826 17.462 15.983 35.068h21.677c-.157-17.606-15.826-17.463-15.983-35.068z" fill="#444"/><path d="m189.48 381.574-7.456-2.629-.004-.019h-14.156c-10.346 0-19.518 5.016-25.226 12.747l-83.489 112.827h393.715l-83.605-112.984c-5.715-7.643-14.837-12.59-25.114-12.59h-14.17l.01.019-7.456 2.646c-36.937-.781-96.42-.735-133.049-.017z" fill="#b3dafe"/><path d="m322.529 381.591-7.324-2.665h-13.426l-2.913 2.164-4.475-2.164c-.094 21.122-17.242 38.217-38.386 38.217s-38.292-17.095-38.386-38.217l-3.49 2.164-3.898-2.164h-13.427l-7.324 2.648c1.307 31.166 24.131 56.853 53.971 62.571l-10.891 12.3c-2.806 3.169-2.806 7.932 0 11.102l17.038 19.244c3.332 3.764 9.206 3.764 12.539 0l17.038-19.244c2.806-3.169 2.806-7.933 0-11.102l-10.853-12.259c29.949-5.625 52.888-31.354 54.207-62.595z" fill="#ffe177"/><ellipse cx="256.004" cy="463.302" fill="#fd8087" rx="6.252" ry="8.16"/><path d="m217.614 367.764v10.988c0 21.202 17.188 38.39 38.39 38.39 21.202 0 38.39-17.188 38.39-38.39v-11.104l-38.212-11.094z" fill="#b3dafe"/><path d="m217.614 367.764c24.066 11.382 52.726 11.351 76.78-.116v-75.887h-76.78z" fill="#8ac9fe"/><path d="m210.04 282.187h-43.365c-16.672 0-30.188-13.516-30.188-30.188v-.186c0-16.672 13.516-30.188 30.188-30.188h43.365z" fill="#8ac9fe"/><path d="m301.969 221.625h43.365c16.672 0 30.188 13.516 30.188 30.188v.186c0 16.672-13.516 30.188-30.188 30.188h-43.365z" fill="#60b7ff"/><path d="m369.259 391.516c-5.715-7.643-14.837-12.59-25.114-12.59h-18c10.277 0 19.399 4.947 25.114 12.59l83.605 112.984h18z" fill="#8ac9fe"/><path d="m251.357 356.172c45.162-4.232 80.509-42.24 80.509-88.509v-31.514c0-51.205-42.884-88.524-84.686-88.524-45.227 4.251-80.509 42.286-80.509 88.509v31.514c0 50.977 42.65 88.524 84.686 88.524z" fill="#c4e2ff"/><path d="m247.18 147.624c45.247 4.149 80.686 42.195 80.686 88.524v31.514c0 46.269-35.346 84.277-80.509 88.509 53.749 4.928 97.731-36.998 97.731-88.524v-31.514c.001-51.649-44.149-93.541-97.908-88.509z" fill="#b3dafe"/><path d="m489.753 210.547c-2.294-1.63-5.45-1.875-8.021-.62l-6.951 3.392c5.615 6.576 4.615 16.32-3.024 21.752l-33.222 23.091 5.446 26.151c.366 1.758 2.685 2.18 3.647.663l8.005-12.62c.751-1.185 2.011-1.945 3.398-2.212l-2.495-11.982 33.222-23.091c8.807-6.263 8.805-18.263-.005-24.524z" fill="#60b7ff"/><path d="m317.211 279.9h-9.884c-4.293 0-7.773 3.551-7.773 7.93 0 4.38 3.48 7.93 7.773 7.93h10.21c4.373 0 7.902-3.683 7.77-8.175-.128-4.339-3.84-7.685-8.096-7.685z" fill="#fe8f83"/><path d="m204.356 279.9h-9.884c-4.293 0-7.773 3.551-7.773 7.93 0 4.38 3.48 7.93 7.773 7.93h10.21c4.373 0 7.902-3.683 7.77-8.175-.129-4.339-3.84-7.685-8.096-7.685z" fill="#fe8f83"/><path d="m154.025 176.356v25.312h189.958v-25.312c0-52.947-40.352-96.465-91.979-101.49-50.091 0-97.979 43.646-97.979 101.49z" fill="#ffc344"/><path d="m246.004 74.866c51.627 5.025 91.979 48.543 91.979 101.49v25.312h20v-25.312c0-60.094-51.76-107.352-111.979-101.49z" fill="#fdb441"/><g fill="#ffd15b"><path d="m266.66 148.415c8.373 6.46 13.17 15.761 13.17 25.535 0 1.723-.161 3.428-.452 5.108h20c.291-1.68.452-3.386.452-5.108 0-9.774-4.798-19.075-13.17-25.535-10.73-9.361-14.314-16.61-26.653-36.498-1.842-2.97-6.163-2.97-8.005 0l-5.997 9.667c6.354 10.243 10.497 17.969 20.655 26.831z"/><path d="m360.206 179.058h-20c2.596 0 4.701 2.104 4.701 4.701v33.166c0 2.596-2.105 4.7-4.701 4.7h20c2.596 0 4.701-2.104 4.701-4.7v-33.166c0-2.597-2.105-4.701-4.701-4.701z"/></g><path d="m344.206 179.058h-44.828-20c.291-1.68.452-3.386.452-5.108 0-9.774-4.798-19.075-13.17-25.535-10.023-8.744-14.089-16.246-20.655-26.831-6.354 10.243-10.498 17.969-20.655 26.831-8.373 6.46-13.17 15.761-13.17 25.535 0 1.723.161 3.428.452 5.108h-60.828c-2.596 0-4.701 2.104-4.701 4.701v33.166c0 2.596 2.105 4.7 4.701 4.7h192.404c2.596 0 4.701-2.104 4.701-4.7v-33.166c-.002-2.597-2.107-4.701-4.703-4.701z" fill="#ffe177"/><ellipse cx="255.887" cy="178" fill="#fd8087" rx="14.175" ry="18.5"/></g><g><path d="m229.419 292.905c0 14.583 11.864 26.448 26.448 26.448s26.448-11.865 26.448-26.448c0-4.142-3.357-7.5-7.5-7.5s-7.5 3.358-7.5 7.5c0 6.313-5.136 11.448-11.448 11.448-6.313 0-11.448-5.136-11.448-11.448 0-4.142-3.357-7.5-7.5-7.5s-7.5 3.358-7.5 7.5z"/><path d="m299.554 274.083c4.143 0 7.5-3.358 7.5-7.5v-16.43c0-4.142-3.357-7.5-7.5-7.5s-7.5 3.358-7.5 7.5v16.43c0 4.142 3.358 7.5 7.5 7.5z"/><path d="m212.455 242.653c-4.143 0-7.5 3.358-7.5 7.5v16.43c0 4.142 3.357 7.5 7.5 7.5s7.5-3.358 7.5-7.5v-16.43c0-4.142-3.358-7.5-7.5-7.5z"/><path d="m255.887 204c11.951 0 21.675-11.664 21.675-26s-9.724-26-21.675-26c-11.952 0-21.676 11.664-21.676 26s9.724 26 21.676 26zm0-37c3.15 0 6.675 4.704 6.675 11s-3.524 11-6.675 11-6.676-4.704-6.676-11 3.525-11 6.676-11z"/><path d="m503.862 222.809c0-7.267-3.559-13.964-9.764-18.375-4.37-3.106-10.456-3.787-15.654-1.247l-48.212 23.525c-6.467 3.155-11.112 8.983-12.496 15.646l-14.687 50.675c-1.128 3.887-1.699 7.913-1.699 11.963 0 61.262 1.324 36.305-5.807 109.43l-20.254-27.372c-.008-.01-.016-.02-.022-.03-.743-.993-1.541-1.934-2.369-2.844 3.801-4.569 7.664-10.47 7.575-20.401-.184-20.549-15.866-21.85-15.983-35.063-.12-13.247 15.537-14.776 15.354-35.352-.071-7.875-2.584-13.17-5.556-17.27 5.45-6.537 8.735-14.939 8.735-24.095v-.186c0-11.181-4.899-21.236-12.658-28.144 1.288-1.934 2.043-4.252 2.043-6.745v-33.166c0-4.875-2.88-9.079-7.023-11.031 7.109-15.909 10.723-32.875 10.723-50.467-.001-67.15-53.604-122.258-119.984-122.26-30.971 0-60.386 12.032-82.828 33.879-2.968 2.889-3.032 7.638-.143 10.605 2.888 2.967 7.636 3.033 10.605.143 19.626-19.105 45.325-29.627 72.366-29.627 58.772.002 104.983 49.199 104.983 107.261 0 6.263-.519 12.435-1.551 18.491-9.391-27.321-29.512-50.245-55.752-62.97v-.509c0-26.356-21.443-47.799-47.8-47.799s-47.8 21.443-47.8 47.799v.512c-25.48 12.355-45.914 34.759-55.59 62.509-.981-5.91-1.475-11.929-1.475-18.032 0-18.044 4.489-35.897 12.983-51.63 1.968-3.645.608-8.195-3.036-10.163-3.649-1.969-8.195-.608-10.163 3.037-9.672 17.914-14.784 38.231-14.784 58.756 0 17.454 3.562 34.304 10.569 50.117-.006.106-.013.211-.019.317-4.178 1.939-7.088 6.162-7.088 11.063v33.166c0 2.493.755 4.811 2.043 6.745-7.759 6.908-12.658 16.962-12.658 28.144v.186c0 9.156 3.285 17.558 8.735 24.095-2.972 4.1-5.485 9.395-5.556 17.27-.183 20.57 15.474 22.115 15.354 35.352-.117 13.232-15.799 14.495-15.983 35.063-.088 9.932 3.776 15.833 7.576 20.402-1.916 2.106-.464.273-22.647 30.251l-5.807-59.554v-49.882c0-8.08-.381-7.412-16.386-62.639-1.384-6.663-6.029-12.491-12.496-15.646l-48.212-23.525c-5.006-2.443-11.15-1.954-15.654 1.247-6.204 4.41-9.763 11.107-9.764 18.375s3.556 13.965 9.824 18.421l29.148 20.26-1.67 8.018-.74-1.167c-3.28-5.171-10.117-7.232-15.905-4.788-11.313 4.772-16.746 16.994-12.371 27.824 18.41 45.585 17.074 42.954 18.641 44.492l16.568 21.583c.398 4.394.346 21.348.22 61.445-.065 20.913-.153 48.676-.217 85.592 0 .106.011.211.015.317.002.051.004.102.007.153.246 4.03 3.612 7.043 7.481 7.043 1.453 0 393.918.05 394.833-.088 3.488-.525 6.289-3.523 6.368-7.25.001-.059.014-.115.014-.175-.05-28.773-.114-51.985-.171-70.727-.013-4.135-3.368-7.478-7.5-7.478-.007 0-.015 0-.022 0-4.143.013-7.49 3.38-7.478 7.522.041 13.506.086 29.332.126 47.89l-36.46-49.272c9.539-97.805 7.491-60.584 7.491-127.426 0-2.637.372-5.256 1.105-7.787.156-.539 14.841-51.141 14.945-51.692.409-2.187 2.058-4.178 4.409-5.325.316-.154 48.268-23.652 48.598-23.532 2.228 1.583 3.454 3.767 3.454 6.149 0 2.383-1.226 4.567-3.385 6.104l-33.222 23.091c-2.47 1.717-3.676 4.743-3.063 7.688l6.451 30.979c.623 2.99 2.996 5.303 6 5.85 3.007.544 6.041-.784 7.676-3.362l9.519-15.006c2.625 1.729 4.011 4.683 2.829 7.606-18.386 45.525-15.997 39.735-16.707 41.075l-16.573 21.589c.001-.001.001-.002.001-.002-.001 0-.003.002-.007.006-3.331 3.65-3.331 5.213-3.331 31.324 0 5.2.013 11.476.034 19.062.012 4.135 3.367 7.479 7.5 7.479h.021c4.142-.012 7.49-3.379 7.479-7.521-.021-7.569-.034-13.831-.034-19.019 0-6.694 0-18.631.318-22.303l16.566-21.581c1.565-1.536.222 1.114 18.64-44.49 6.039-14.94-6.943-28.854-17.469-28.854-4.389 0-8.528 2.228-10.806 5.816l-.741 1.168-1.67-8.019 29.215-20.306c6.205-4.412 9.762-11.109 9.762-18.376zm-65.879 274.191h-64.852v-62.73c0-4.142-3.357-7.5-7.5-7.5s-7.5 3.358-7.5 7.5v62.73h-100.425c3.856-.451 7.444-2.299 10.046-5.237l17.039-19.245c5.31-5.999 5.31-15.046-.002-21.043l-2.916-3.295c26.182-9.749 44.896-33.683 47.812-61.753h11.663c4.588.167 14.674-.075 21.895 9.567 2.557 3.456 70.313 95.023 74.74 101.006zm-193.121-60.221c-25.215-4.832-44.182-25.418-47.449-50.352h13.35c3.669 21.652 22.594 38.216 45.242 38.216s41.573-16.564 45.242-38.216h13.351c-3.271 25.025-22.326 45.63-47.66 50.389-5.717 1.074-8.087 7.987-4.23 12.342l10.853 12.26c.292.33.293.828.001 1.157l-17.038 19.244c-.346.392-.961.392-1.309 0l-17.038-19.245c-.292-.33-.292-.827 0-1.157l10.891-12.301c3.846-4.345 1.496-11.245-4.206-12.337zm-100.875-184.78v-.186c0-9.947 6.434-18.419 15.359-21.474-.076 1.262-.175 3.913-.175 5.794v31.515c0 2.191.114 4.818.177 5.818-8.892-3.051-15.361-11.498-15.361-21.467zm120.637-22.874v4.949c0 4.829-3.929 8.757-8.757 8.757-4.829 0-8.758-3.929-8.758-8.757v-4.949zm-8.756 28.707c13.1 0 23.757-10.658 23.757-23.757v-4.949h57.656c.218 2.531.308 4.863.308 7.008v31.515c0 44.714-36.342 81.406-81.406 81.406h-.605c-45.039 0-81.406-36.665-81.406-81.406v-31.515c0-2.133.089-4.464.308-7.008h57.631v4.949c-.001 13.099 10.657 23.757 23.757 23.757zm-30.754 101.312c9.491 3.169 19.974 4.911 30.464 4.911h.605c10.42 0 21.029-1.729 30.713-4.992v19.584c-.002.082-.004.169-.004.238v.008c-.075 16.955-13.931 30.75-30.886 30.75s-30.811-13.794-30.886-30.75c-.008-1.383-.006 5.114-.006-19.749zm142.908-107.145c0 10.164-6.718 18.633-15.615 21.551.259-4.244.181-5.059.181-37.417 0-1.962-.101-4.589-.18-5.879 9.057 2.98 15.613 11.519 15.613 21.56v.185zm-18.533 76.851c.185 20.609 15.866 21.77 15.983 35.063.047 5.205-1.737 7.905-4.554 11.21-6.81-3.335-13.821-3.697-19.602-3.697-8.63-.298-20.18-.064-39.421-.011v-18.872c24.487-13.197 41.996-36.244 48.224-63.165 4.21-.543 8.422-1.805 12.444-3.87 1.415 2.15 2.249 4.499 2.28 7.99.12 13.247-15.537 14.776-15.354 35.352zm-58.058-186.226c-9.642-8.45-12.817-14.937-25.051-34.662-2.243-3.615-6.122-5.772-10.376-5.772-7.647 0-10.327 5.679-12.842 9.767-.041.067-.085.137-.126.204-10.166 16.531-13.574 22.676-22.459 30.464-9.436 7.36-15.109 17.787-15.822 28.934h-42.982c3.616-54.061 47.362-89.681 94.231-89.681 46.579 0 90.597 35.338 94.231 89.681h-42.982c-.719-11.25-6.47-21.64-15.822-28.935zm-3.11-70.926c-10.591-3.248-21.556-4.82-32.316-4.82-10.763 0-21.675 1.558-32.317 4.823 2.681-15.574 16.273-27.227 32.317-27.227 15.811-.001 29.589 11.406 32.316 27.224zm-133.719 142.427v-27.567h58.028c4.654 0 8.183-4.201 7.39-8.78-1.585-9.182 2.622-17.802 9.91-23.426.119-.092.236-.188.35-.286 10.924-9.531 15.175-17.211 25.725-34.358 10.549 17.147 14.8 24.828 25.725 34.358.113.099.23.194.35.286 6.515 5.026 10.251 12.169 10.251 19.597 0 3.611-1.556 6.532 1.311 9.938 1.426 1.693 3.525 2.67 5.738 2.67h58.028v27.567c-7.172.001-195.228.001-202.806.001zm7.918 114.725c.183-20.57-15.474-22.115-15.354-35.352.031-3.491.865-5.839 2.28-7.99 3.741 1.923 7.821 3.238 12.188 3.836.656 2.842 1.526 5.971 2.606 9.174.002.007.005.015.007.022 7.786 23.066 24.109 42.493 45.867 54.135v18.75c-2.663 0-42.985-.021-44.528.069-.048.003-.095.009-.143.012-4.988.307-9.816 1.556-14.287 3.695-2.855-3.341-4.667-6.042-4.62-11.289.118-13.257 15.799-14.478 15.984-35.062zm-13.847 67.275c4.557-6.17 11.701-9.699 19.19-9.699h14.461c2.912 27.969 21.542 51.873 47.606 61.676l-2.985 3.371c-5.312 5.999-5.312 15.046 0 21.045l17.037 19.244c2.601 2.938 6.19 4.787 10.047 5.238h-100.152v-62.73c0-4.142-3.357-7.5-7.5-7.5s-7.5 3.358-7.5 7.5v62.73h-64.848c1.717-2.32 66.947-90.473 74.644-100.875zm-101.624-69.292c-.113-.21-.235-.415-.367-.613l-16.341-40.462c-1.132-2.802.049-5.806 2.825-7.611l9.522 15.011c3.596 5.673 12.304 4.093 13.676-2.488l6.451-30.979c.613-2.944-.593-5.971-3.063-7.688l-33.155-23.044c-2.226-1.583-3.451-3.766-3.451-6.148 0-2.383 1.227-4.567 3.442-6.143.073-.04.282-.057.397 0l48.212 23.525c2.352 1.147 4 3.138 4.409 5.325.045.238.102.474.169.707 16.108 55.581 15.882 53.418 15.882 58.772v50.247c0 .243.012.486.035.728l7.456 76.457-36.458 49.271c.056-25.848.12-46.399.172-62.757.101-31.928.15-47.954-.011-56.218-.161-8.275-.445-11.233-3.24-14.316z"/><ellipse cx="256.004" cy="463.302" rx="6.252" ry="8.16"/></g></g></svg>