<svg id="Capa_1" enable-background="new 0 0 512.002 512.002" height="512" viewBox="0 0 512.002 512.002" width="512" xmlns="http://www.w3.org/2000/svg"><g><path d="m296.001 172.5h-25l-45 150 75-30v-45c8.964-4.993 15-14.315 15-25v-30c0-11.046-8.955-20-20-20z" fill="#85453d"/><path d="m216.001 172.5c-11.046 0-20 8.954-20 20v30c0 10.685 6.036 20.007 15 25v45l60 30v-150z" fill="#a45e43"/><path d="m211.001 292.5c0 49.706 40.294 90 90 90v-90l-45 15z" fill="#ff4128"/><path d="m271.001 292.5-60 90c49.705 0 90-40.294 90-90z" fill="#ff6337"/><path d="m271.001 292.5h-60v90c33.137 0 60-40.294 60-90z" fill="#ff8646"/><path d="m241.001 7.5c-16.569 0-30 13.431-30 30 0 8.284 6.716 15 15 15h30v-45z" fill="#ebebeb"/><path d="m271.001 7.5h-15v45h30c8.284 0 15-6.716 15-15 0-16.569-13.431-30-30-30z" fill="#ccc"/><path d="m256.001 7.5c-8.284 0-15 13.431-15 30 0 8.284 6.716 15 15 15s15-6.716 15-15c0-16.569-6.716-30-15-30z" fill="#fff"/><path d="m256.001 52.989v101l45-46v-10c0-24.853-20.147-45-45-45z" fill="#85453d"/><path d="m256.001 52.989c-24.853 0-45 20.147-45 45v10l60 46v-56c0-24.853-6.716-45-15-45z" fill="#a45e43"/><path d="m256.001 107.989v102.011c9.81 0 18.149-6.28 21.228-15.038.421.023.845.038 1.272.038 12.426 0 22.5-10.074 22.5-22.5v-64.511z" fill="#ccc"/><path d="m256.001 97.972c-6.759 0-12.551 4.128-15 10l-30 .016v64.512c0 12.426 10.074 22.5 22.5 22.5.427 0 .851-.015 1.272-.038 3.079 8.758 11.418 15.038 21.228 15.038 8.284 0 15-10.074 15-22.5v-79.528c-2.449-5.871-8.241-10-15-10z" fill="#ebebeb"/><path d="m301.001 390c4.142 0 7.5-3.358 7.5-7.5v-130.911c9.35-6.82 15-17.604 15-29.089v-22.786c50.271-3.842 90-45.976 90-97.214 0-4.142-3.358-7.5-7.5-7.5s-7.5 3.358-7.5 7.5c0 43.349-33.614 78.971-76.142 82.231-2.124-7.198-7.124-13.252-13.858-16.685v-70.057c0-.596-.025-1.186-.045-1.777 9.402 16.758 15.045 38.087 15.045 61.288 0 4.142 3.358 7.5 7.5 7.5s7.5-3.358 7.5-7.5c0-28.415-7.667-55.264-21.611-76.03 18.951 15.181 32.243 37.305 35.706 62.748.512 3.761 3.729 6.489 7.422 6.489.336 0 .678-.023 1.021-.069 4.104-.559 6.979-4.339 6.42-8.443-3.637-26.716-16.84-51.286-37.178-69.182-8.839-7.778-18.764-14.047-29.385-18.67 4.659-4.125 7.604-10.145 7.604-16.843 0-20.678-16.822-37.5-37.5-37.5h-30c-20.678 0-37.5 16.822-37.5 37.5 0 6.698 2.945 12.718 7.604 16.843-10.621 4.623-20.547 10.891-29.386 18.67-20.338 17.896-33.541 42.466-37.178 69.182-.559 4.104 2.316 7.884 6.42 8.443 4.111.557 7.885-2.315 8.443-6.42 3.463-25.443 16.756-47.568 35.707-62.749-13.944 20.766-21.611 47.615-21.611 76.03 0 4.142 3.358 7.5 7.5 7.5s7.5-3.358 7.5-7.5c0-23.201 5.643-44.53 15.045-61.288-.02.591-.045 1.181-.045 1.777v70.057c-6.818 3.477-11.861 9.638-13.939 16.955h-46.061v-22.5c0-4.142-3.358-7.5-7.5-7.5h-15c-12.407 0-22.5 10.093-22.5 22.5s10.093 22.5 22.5 22.5h7.5v75h-7.5c-4.142 0-7.5 3.358-7.5 7.5s3.358 7.5 7.5 7.5h7.5v162h-7.5c-4.142 0-7.5 3.358-7.5 7.5s3.358 7.5 7.5 7.5h7.5v37.5c0 4.142 3.358 7.5 7.5 7.5s7.5-3.358 7.5-7.5v-82.5h7.5c4.142 0 7.5-3.358 7.5-7.5s-3.358-7.5-7.5-7.5h-7.5v-162h7.5c4.142 0 7.5-3.358 7.5-7.5s-3.358-7.5-7.5-7.5h-7.5v-30h45v22.5c0 11.485 5.65 22.27 15 29.089v130.911c0 4.142 3.358 7.5 7.5 7.5 2.523 0 5.024-.096 7.5-.286v99.38l-24.872 8.291c-3.93 1.31-6.053 5.557-4.744 9.487 1.048 3.143 3.974 5.13 7.114 5.13.786 0 1.586-.125 2.373-.387l30-10c3.063-1.021 5.128-3.887 5.128-7.115v-107.125c7.906-1.875 15.442-4.715 22.477-8.389 7.138 3.719 14.707 6.534 22.523 8.383v107.131c0 3.228 2.066 6.094 5.128 7.115l30 10c.787.262 1.586.387 2.373.387 3.14 0 6.066-1.988 7.114-5.13 1.31-3.93-.814-8.177-4.744-9.487l-24.872-8.291v-99.394c2.495.192 4.996.3 7.504.3zm-172.5-205h-7.5c-4.136 0-7.5-3.364-7.5-7.5s3.364-7.5 7.5-7.5h7.5zm177.349-.183c1.673 2.138 2.651 4.818 2.651 7.683v30c0 7.549-4.272 14.618-11.149 18.448-2.377 1.324-3.851 3.832-3.851 6.552v37.5h-15v-77.675c1.36-1.541 2.574-3.224 3.604-5.04 10.597-1.275 19.508-8.097 23.745-17.468zm-12.349-147.317c0 4.136-3.364 7.5-7.5 7.5h-8.79c.833-2.347 1.29-4.871 1.29-7.5 0-8.469-1.522-16.106-4.153-22.25 10.825 1.622 19.153 10.98 19.153 22.25zm-37.5-22.5c1.867 0 7.5 7.98 7.5 22.5 0 4.136-3.364 7.5-7.5 7.5s-7.5-3.364-7.5-7.5c0-14.52 5.633-22.5 7.5-22.5zm-18.347.25c-2.631 6.143-4.153 13.781-4.153 22.25 0 2.629.458 5.153 1.29 7.5h-8.79c-4.136 0-7.5-3.364-7.5-7.5 0-11.27 8.328-20.628 19.153-22.25zm-19.153 82.739c0-20.678 16.822-37.5 37.5-37.5s37.5 16.822 37.5 37.5v2.483h-18.129c-4.389-6.2-11.546-10-19.371-10s-14.982 3.8-19.371 10h-18.129zm0 17.483h22.499c3.027 0 5.757-1.819 6.922-4.613 1.365-3.272 4.536-5.387 8.079-5.387s6.713 2.115 8.079 5.387c1.165 2.793 3.895 4.613 6.922 4.613h22.5v57.028c0 8.271-6.729 15-15 15-.288 0-.572-.011-.856-.026-3.329-.179-6.385 1.853-7.492 5.001-2.108 5.997-7.795 10.025-14.152 10.025s-12.044-4.029-14.152-10.025c-1.06-3.016-3.906-5.013-7.073-5.013-.139 0-.279.004-.419.012-.284.016-.568.026-.856.026-8.271 0-15-6.729-15-15v-57.028zm30 169.528v-16.29c2.347.833 4.871 1.29 7.5 1.29s5.153-.458 7.5-1.29v16.29zm15 15v7.5c0 4.136-3.364 7.5-7.5 7.5s-7.5-3.364-7.5-7.5v-7.5zm-7.5-45c-4.136 0-7.5-3.364-7.5-7.5v-30.967c2.414.625 4.928.967 7.5.967s5.086-.341 7.5-.967v30.967c0 4.136-3.364 7.5-7.5 7.5zm-41.351-14.052c-6.877-3.83-11.149-10.899-11.149-18.448v-30c0-2.865.978-5.545 2.651-7.683 4.237 9.37 13.148 16.193 23.745 17.467 1.03 1.816 2.244 3.499 3.604 5.04v77.676h-15v-37.5c0-2.721-1.474-5.229-3.851-6.552zm3.851 133.714v-74.662h15v7.5c0 12.407 10.093 22.5 22.5 22.5s22.5-10.093 22.5-22.5v-7.5h14.662c-3.576 39.521-35.141 71.086-74.662 74.662zm52.449-5.323c8.874-6.939 16.518-15.381 22.551-24.937v30.257c-7.746-.705-15.342-2.504-22.551-5.32z"/></g></svg>