<svg id="Layer_1" enable-background="new 0 0 512 512" height="512" viewBox="0 0 512 512" width="512" xmlns="http://www.w3.org/2000/svg"><g><path d="m493.486 327.412c4.901-19.326 7.514-39.563 7.514-60.412 0-135.31-109.69-245-245-245s-245 109.69-245 245c0 20.85 2.613 41.088 7.514 60.413z" fill="#e80054"/><g><path d="m109.386 190.502c-4.142 0-7.5-3.357-7.5-7.5v-30.698c0-4.143 3.358-7.5 7.5-7.5s7.5 3.357 7.5 7.5v30.698c0 4.143-3.357 7.5-7.5 7.5z" fill="#e8d0b1"/></g><path d="m74.189 242.161h70.395v45.114h-70.395z" fill="#f1e0c7"/><path d="m74.189 287.275h42.875v-26.742c-13.598-2.992-9.173-16.372-9.173-16.372l-2.505-2h-31.197z" fill="#e8d0b1"/><g><path d="m121.119 296.448c-4.142 0-7.5-3.357-7.5-7.5v-22.111c0-4.143 3.358-7.5 7.5-7.5s7.5 3.357 7.5 7.5v22.111c0 4.143-3.358 7.5-7.5 7.5z" fill="#d6ba9d"/></g><g><path d="m97.654 296.448c-4.142 0-7.5-3.357-7.5-7.5v-22.111c0-4.143 3.358-7.5 7.5-7.5s7.5 3.357 7.5 7.5v22.111c0 4.143-3.358 7.5-7.5 7.5z" fill="#d6ba9d"/></g><path d="m138.179 196.762c-8.141-3.217-16.268-7.963-22.73-14.933-.781-.842-1.883-1.312-3.031-1.312h-6.063c-1.148 0-2.251.47-3.031 1.312-6.462 6.97-14.589 11.716-22.73 14.933-16.135 6.375-21.819 26.341-11.572 40.34l5.167 7.059h35.198 35.197l5.167-7.059c10.247-14 4.564-33.965-11.572-40.34z" fill="#f9efdc"/><path d="m111.621 196.761c3.381-2.294 6.751-5.384 9.775-9.485-2.089-1.65-4.092-3.447-5.946-5.447-.781-.842-1.883-1.312-3.031-1.312h-6.063c-1.148 0-2.251.47-3.031 1.312-6.462 6.97-14.588 11.716-22.73 14.933-16.135 6.376-21.819 26.341-11.571 40.341l5.167 7.059h33.702l-3.009-7.059c-5.97-14.001-2.66-33.966 6.737-40.342z" fill="#f1e0c7"/><g><path d="m402.614 190.502c-4.142 0-7.5-3.357-7.5-7.5v-30.698c0-4.143 3.358-7.5 7.5-7.5s7.5 3.357 7.5 7.5v30.698c0 4.143-3.358 7.5-7.5 7.5z" fill="#e8d0b1"/></g><path d="m367.416 242.161h70.395v45.114h-70.395z" fill="#f1e0c7"/><path d="m367.416 287.275h42.875v-26.742c-13.598-2.992-9.173-16.372-9.173-16.372l-2.505-2h-31.197z" fill="#e8d0b1"/><g><path d="m414.346 296.448c-4.142 0-7.5-3.357-7.5-7.5v-22.111c0-4.143 3.358-7.5 7.5-7.5s7.5 3.357 7.5 7.5v22.111c0 4.143-3.358 7.5-7.5 7.5z" fill="#d6ba9d"/></g><g><path d="m390.881 296.448c-4.142 0-7.5-3.357-7.5-7.5v-22.111c0-4.143 3.358-7.5 7.5-7.5s7.5 3.357 7.5 7.5v22.111c0 4.143-3.358 7.5-7.5 7.5z" fill="#d6ba9d"/></g><path d="m493.974 325.411v-32.696c0-4.109-3.331-7.44-7.44-7.44h-36.287v131.025c20.42-26.528 35.524-57.352 43.727-90.889z" fill="#f1e0c7"/><path d="m472.248 292.715c0-4.109 3.331-7.44 7.44-7.44h-29.44v131.025c8.24-10.704 15.596-22.118 22-34.117z" fill="#e8d0b1"/><path d="m18.026 292.715v32.698c8.204 33.536 23.307 64.36 43.727 90.887v-131.025h-36.287c-4.109 0-7.44 3.331-7.44 7.44z" fill="#f1e0c7"/><path d="m41.276 291.715c0-2.754 1.501-5.154 3.726-6.44h-19.536c-4.109 0-7.44 3.331-7.44 7.44v32.698c5.155 21.074 13.038 41.075 23.25 59.613z" fill="#e8d0b1"/><path d="m354.979 491.165c37.712-16.676 70.42-42.585 95.268-74.866v-131.024h-95.268z" fill="#f9efdc"/><path d="m354.979 285.275v205.89c13.723-6.068 26.774-13.374 39.035-21.749 0-46.732 0-153.553 0-166.414 0-16.516 12.819-17.726 12.832-17.727z" fill="#e8d0b1"/><path d="m431.406 196.762c-8.141-3.217-16.268-7.963-22.73-14.933-.781-.842-1.883-1.312-3.031-1.312h-6.063c-1.148 0-2.251.47-3.031 1.312-6.462 6.97-14.589 11.716-22.73 14.933-16.135 6.375-21.819 26.341-11.572 40.34l5.167 7.059h35.198 35.197l5.167-7.059c10.247-14 4.564-33.965-11.572-40.34z" fill="#f9efdc"/><path d="m404.848 196.761c3.381-2.294 6.751-5.384 9.775-9.485-2.089-1.65-4.092-3.447-5.946-5.447-.781-.842-1.883-1.312-3.031-1.312h-6.064c-1.148 0-2.251.47-3.031 1.312-6.462 6.97-14.588 11.716-22.73 14.933-16.135 6.376-21.819 26.341-11.571 40.341l5.167 7.059h33.702l-3.009-7.059c-5.969-14.001-2.659-33.966 6.738-40.342z" fill="#f1e0c7"/><path d="m61.752 416.3c24.848 32.281 57.557 58.19 95.268 74.866v-205.89h-95.268z" fill="#f9efdc"/><path d="m157.021 285.275v205.89c-13.723-6.068-26.774-13.374-39.035-21.749 0-46.732 0-153.553 0-166.414 0-16.516-12.819-17.726-12.832-17.727z" fill="#f1e0c7"/><g><path d="m164.71 318.002h-146.684c-4.142 0-7.5-3.357-7.5-7.5s3.358-7.5 7.5-7.5h146.684c4.142 0 7.5 3.357 7.5 7.5s-3.358 7.5-7.5 7.5z" fill="#f1e0c7"/></g><g><path d="m493.974 318.002h-147.764c-4.142 0-7.5-3.357-7.5-7.5s3.358-7.5 7.5-7.5h147.764c4.142 0 7.5 3.357 7.5 7.5s-3.358 7.5-7.5 7.5z" fill="#f1e0c7"/></g><path d="m422.239 383.857v-26.787c0-10.839-8.787-19.625-19.625-19.625-10.839 0-19.625 8.786-19.625 19.625v26.787z" fill="#f1e0c7"/><path d="m402.613 337.444c-3.163 0-6.14.766-8.786 2.095 6.422 3.226 10.839 9.855 10.839 17.531v26.787h17.572v-26.787c.001-10.839-8.786-19.626-19.625-19.626z" fill="#d6ba9d"/><path d="m402.613 408.603c-10.839 0-19.625 8.786-19.625 19.625v48.334c14.08-8.55 27.219-18.49 39.251-29.611v-18.723c0-10.838-8.787-19.625-19.626-19.625z" fill="#f1e0c7"/><path d="m402.613 408.603c-3.163 0-6.14.766-8.786 2.095 6.422 3.225 10.839 9.854 10.839 17.53v33.496c6.084-4.657 11.954-9.581 17.572-14.773v-18.723c.001-10.838-8.786-19.625-19.625-19.625z" fill="#d6ba9d"/><path d="m109.387 408.603c-10.839 0-19.625 8.786-19.625 19.625v18.723c12.032 11.121 25.171 21.061 39.251 29.611v-48.334c-.001-10.838-8.787-19.625-19.626-19.625z" fill="#e8d0b1"/><path d="m129.012 383.857v-26.787c0-10.839-8.787-19.625-19.625-19.625-10.839 0-19.625 8.786-19.625 19.625v26.787z" fill="#f1e0c7"/><path d="m109.386 337.444c-3.163 0-6.14.766-8.786 2.095 6.422 3.226 10.839 9.855 10.839 17.531v26.787h17.572v-26.787c.001-10.839-8.786-19.626-19.625-19.626z" fill="#d6ba9d"/><path d="m129.012 476.562v-48.334c0-10.839-8.787-19.625-19.625-19.625-3.163 0-6.14.766-8.786 2.095 6.422 3.225 10.839 9.854 10.839 17.53v36.567c5.68 4.162 11.534 8.1 17.572 11.767z" fill="#d6ba9d"/><g><path d="m157.021 391.356h-95.269c-4.142 0-7.5-3.357-7.5-7.5s3.358-7.5 7.5-7.5h95.269c4.142 0 7.5 3.357 7.5 7.5s-3.358 7.5-7.5 7.5z" fill="#f1e0c7"/></g><g><path d="m450.248 391.356h-95.269c-4.142 0-7.5-3.357-7.5-7.5s3.358-7.5 7.5-7.5h95.269c4.142 0 7.5 3.357 7.5 7.5s-3.358 7.5-7.5 7.5z" fill="#f1e0c7"/></g><g><path d="m254.37 63.509c-4.142 0-7.5-3.358-7.5-7.5v-48.509c0-4.143 3.358-7.5 7.5-7.5s7.5 3.357 7.5 7.5v48.509c0 4.142-3.358 7.5-7.5 7.5z" fill="#e8d0b1"/></g><g><path d="m254.37 99.591c-5.523 0-10-4.478-10-10v-33.582c0-5.522 4.477-10 10-10s10 4.478 10 10v33.582c0 5.522-4.477 10-10 10z" fill="#f1e0c7"/></g><g><path d="m258.805 35.465h-8.87c-4.142 0-7.5-3.357-7.5-7.5s3.358-7.5 7.5-7.5h8.87c4.142 0 7.5 3.357 7.5 7.5s-3.358 7.5-7.5 7.5z" fill="#f1e0c7"/></g><path d="m179.424 223.19h153.111v26.214h-153.111z" fill="#e8d0b1"/><path d="m217.431 236.297c0-6.428 4.523-11.794 10.557-13.107h-48.564v26.214h48.564c-6.035-1.313-10.557-6.679-10.557-13.107z" fill="#d6ba9d"/><path d="m344.117 248.024h-176.275c-5.999 0-10.862 4.863-10.862 10.862v232.262c2.196.972 4.41 1.91 6.64 2.819h184.76c2.216-.903 4.416-1.836 6.599-2.801v-232.28c0-5.999-4.863-10.862-10.862-10.862z" fill="#f1e0c7"/><path d="m225.833 258.886c0-5.999 4.863-10.862 10.862-10.862h-68.853c-5.999 0-10.862 4.864-10.862 10.862v232.262c2.196.972 4.41 1.91 6.64 2.819h68.853c-2.23-.909-4.444-1.847-6.64-2.819z" fill="#e8d0b1"/><path d="m318.605 120.094c-17.708-6.997-35.383-17.319-49.438-32.479-1.698-1.832-4.096-2.854-6.593-2.854h-13.188c-2.498 0-4.895 1.022-6.593 2.854-14.055 15.16-31.73 25.482-49.438 32.479-35.095 13.867-47.456 57.292-25.168 87.742l11.238 15.354h76.555 76.555l11.238-15.354c22.288-30.45 9.926-73.875-25.168-87.742z" fill="#f9efdc"/><path d="m239.14 120.094c11.762-6.485 23.5-15.834 33.175-29.236-1.066-1.058-2.119-2.134-3.148-3.243-1.698-1.831-4.096-2.854-6.593-2.854h-13.188c-2.498 0-4.895 1.022-6.593 2.854-14.055 15.16-31.73 25.482-49.438 32.479-35.095 13.867-47.456 57.292-25.168 87.742l11.238 15.354h49.732l-8.054-15.354c-15.974-30.45-7.115-73.875 18.037-87.742z" fill="#f1e0c7"/><g><path d="m291.374 116.665h-70.789c-4.142 0-7.5-3.357-7.5-7.5s3.358-7.5 7.5-7.5h70.789c4.142 0 7.5 3.357 7.5 7.5s-3.358 7.5-7.5 7.5z" fill="#f1e0c7"/></g><path d="m246.746 109.165c0-4.143 3.358-7.5 7.5-7.5h-33.661c-4.142 0-7.5 3.357-7.5 7.5s3.358 7.5 7.5 7.5h33.661c-4.142 0-7.5-3.357-7.5-7.5z" fill="#e8d0b1"/><path d="m315.051 285.275h-118.142c-1.479 0-2.678 1.199-2.678 2.678v206.013h123.497v-206.013c0-1.479-1.199-2.678-2.677-2.678z" fill="#f9efdc"/><path d="m196.909 285.275c-1.479 0-2.678 1.199-2.678 2.678v206.013h55.363v-152.737c0-1.548-.903-2.977-2.33-3.576-14.261-5.979-12.045-19.646-9.948-26.31.629-1.998-.407-4.107-2.358-4.867-13.287-5.177-9.124-21.201-9.124-21.201z" fill="#f1e0c7"/><path d="m317.728 391.766c-.001-36.625-24.954-81.403-58.782-90.311-1.947-.512-3.986-.512-5.933 0-33.829 8.908-58.782 53.688-58.782 90.314v102.198h123.497z" fill="#e8d0b1"/><path d="m249.594 341.229c0-1.548-.903-2.977-2.33-3.576-14.261-5.979-12.045-19.646-9.948-26.31.301-.956.212-1.934-.168-2.781-25.478 16.298-42.917 52.592-42.917 83.206v102.198h55.363z" fill="#d6ba9d"/><path d="m275.605 383.857v-26.787c0-10.839-8.787-19.625-19.625-19.625-10.839 0-19.625 8.786-19.625 19.625v26.787z" fill="#f1e0c7"/><path d="m236.354 428.228v65.738h39.251v-65.738c0-10.839-8.786-19.625-19.625-19.625-10.839 0-19.626 8.787-19.626 19.625z" fill="#f1e0c7"/><g><path d="m317.333 391.356h-122.706c-4.142 0-7.5-3.357-7.5-7.5s3.358-7.5 7.5-7.5h122.706c4.142 0 7.5 3.357 7.5 7.5s-3.358 7.5-7.5 7.5z" fill="#f9efdc"/></g><path d="m161.173 492.966c29.168 12.256 61.205 19.034 94.827 19.034s65.659-6.778 94.827-19.034z" fill="#f9efdc"/><g><path d="m236.714 492.966h-75.541c23.059 9.688 47.915 15.936 73.925 18.136-7.526-3.562-6.801-15.816 1.616-18.136z" fill="#f1e0c7"/></g></g></svg>