<svg id="Capa_1" enable-background="new 0 0 500.676 500.676" height="512" viewBox="0 0 500.676 500.676" width="512" xmlns="http://www.w3.org/2000/svg"><g><g id="XMLID_200_"><g><g><g id="XMLID_227_"><g><path d="m487.45 192.809 5.72 47.27h-340.5l115.76-141.25 36.38-46.64c18.52-23.75 54.43-23.75 72.95 0z" fill="#fd9468"/></g></g></g><path d="m493.17 240.079-5.72-47.27-18.676-23.942h-147.325c-7.802 0-15.154-3.65-19.871-9.864l-2.622-3.455c-8.357-11.01-8.181-26.286.426-37.101l47.344-59.487c5.947-7.627 13.713-12.797 22.094-15.526-19.523-14.496-48.15-11.585-64.01 8.754l-152.14 187.89 148.99-32.566v32.566h191.51z" fill="#fe7d43"/><path d="m489.316 188.868h-292.33c-6.27 0-11.35 5.08-11.35 11.35v43.22l34.898 32.457h261.536l18.606-32.457v-43.22c0-6.27-5.091-11.35-11.36-11.35z" fill="#fdb441"/><path d="m185.636 200.218v43.22l34.898 32.457h114.506v-71.736c0-5.55-1.456-10.764-3.998-15.291h-134.057c-6.27 0-11.349 5.08-11.349 11.35z" fill="#fea713"/><g id="XMLID_226_"><g><path d="m303.68 192.809 1.66 33.53h-293.99v-33.53l109.69-140.62c18.52-23.75 54.43-23.75 72.95 0z" fill="#fee97d"/></g></g><path d="m500.676 243.438v149.38c0 38.4-31.14 69.54-69.54 69.54h-175.97c-38.4 0-69.53-31.14-69.53-69.54v-149.38z" fill="#fec165"/><path d="m185.636 243.438v149.38c0 38.4 31.13 69.54 69.53 69.54h51.209c17.62-16.363 28.666-39.713 28.666-65.599v-153.321z" fill="#fdb441"/><path d="m305.34 226.339-1.66-33.53-15.601-20h-171.392c-16.31 0-25.474-18.77-15.442-31.631l65.742-84.279c4.871-6.246 10.967-10.836 17.611-13.796-19.511-14.12-47.819-11.096-63.557 9.086l-109.691 140.62v33.53h45.946v-28.82l4.915-6.301v35.121z" fill="#fee45a"/><path d="m303.68 192.809c6.27 0 11.36 5.08 11.36 11.35v43.22l-18.606 32.457h-261.536l-34.898-32.457v-43.22c0-6.27 5.08-11.35 11.35-11.35z" fill="#fec165"/><path d="m315.04 247.379h-315.04v149.38c0 38.4 31.13 69.54 69.53 69.54h175.97c38.4 0 69.54-31.14 69.54-69.54z" fill="#fece85"/></g></g><path d="m57.296 192.809h-45.946c-6.27 0-11.35 5.08-11.35 11.35v43.22l34.898 32.457h22.398z" fill="#fdb441"/><path d="m302.796 432.234h-175.97c-38.4 0-69.53-31.14-69.53-69.54v-115.315h-57.296v149.38c0 38.4 31.13 69.54 69.53 69.54h175.97c25.466 0 47.727-13.703 59.842-34.13-.846.031-1.692.065-2.546.065z" fill="#fec165"/><g><path d="m129.082 110.761c-.056 0-.111 0-.167 0-5.6-.055-10.821-2.854-13.966-7.488-2.326-3.428-1.433-8.092 1.995-10.417 3.428-2.326 8.091-1.433 10.417 1.995.532.784 1.293.908 1.7.912.418.005 1.17-.104 1.716-.877l.113-.16c2.396-3.38 7.076-4.177 10.456-1.781 3.379 2.396 4.177 7.077 1.781 10.456l-.109.154c-3.197 4.518-8.398 7.206-13.936 7.206z" fill="#fedf30"/></g><g><path d="m103.618 163.201c-.056 0-.112 0-.168-.001-5.6-.055-10.82-2.854-13.964-7.489-2.325-3.428-1.432-8.091 1.996-10.417 3.427-2.326 8.092-1.432 10.417 1.996.532.783 1.292.907 1.699.911.443.01 1.17-.104 1.717-.878l.107-.151c2.39-3.383 7.069-4.188 10.453-1.797 3.383 2.39 4.188 7.07 1.797 10.453l-.109.155c-3.207 4.529-8.408 7.218-13.945 7.218z" fill="#fedf30"/></g><g><path d="m195.972 144.669c-.056 0-.112 0-.168-.001-5.6-.055-10.821-2.854-13.965-7.489-2.326-3.428-1.433-8.092 1.995-10.417 3.426-2.326 8.091-1.432 10.417 1.996.531.784 1.293.907 1.699.911.418.041 1.171-.105 1.717-.877l.107-.151c2.391-3.382 7.07-4.187 10.453-1.797s4.188 7.07 1.797 10.453l-.109.155c-3.204 4.528-8.406 7.217-13.943 7.217z" fill="#fedf30"/></g><g><path d="m332.599 106.561c-.056 0-.112 0-.168-.001-5.6-.055-10.821-2.854-13.965-7.489-2.326-3.428-1.433-8.092 1.995-10.417 3.427-2.326 8.091-1.432 10.417 1.996.531.784 1.293.907 1.699.911.417.039 1.171-.104 1.717-.877l.107-.151c2.391-3.382 7.07-4.188 10.453-1.797 3.383 2.39 4.188 7.07 1.797 10.453l-.109.155c-3.205 4.528-8.406 7.217-13.943 7.217z" fill="#fd6930"/></g><g><path d="m380.263 146.769c-.056 0-.112 0-.168-.001-5.6-.055-10.82-2.854-13.965-7.489-2.326-3.428-1.433-8.091 1.995-10.417 3.427-2.327 8.091-1.433 10.417 1.995.532.784 1.293.908 1.7.912.428.002 1.17-.105 1.717-.878l.107-.151c2.391-3.383 7.07-4.188 10.453-1.797 3.383 2.39 4.188 7.07 1.797 10.453l-.109.155c-3.206 4.529-8.407 7.218-13.944 7.218z" fill="#fe7d43"/></g></g></svg>